<?xml version="1.0" standalone="no"?>
<!DOCTYPE svg PUBLIC "-//W3C//DTD SVG 20010904//EN"
 "http://www.w3.org/TR/2001/REC-SVG-20010904/DTD/svg10.dtd">
<svg version="1.0" xmlns="http://www.w3.org/2000/svg"
 width="2100.000000pt" height="2800.000000pt" viewBox="0 0 2100.000000 2800.000000"
 preserveAspectRatio="xMidYMid meet">

<g transform="translate(0.000000,2800.000000) scale(0.100000,-0.100000)"
fill="#000000" stroke="none">
<path d="M0 14000 l0 -14000 10500 0 10500 0 0 14000 0 14000 -10500 0 -10500
0 0 -14000z m10160 5367 c33 -17 70 -74 70 -109 l0 -29 80 61 c90 68 130 81
178 56 48 -25 65 -67 59 -144 -4 -57 -19 -92 -131 -318 -140 -283 -154 -300
-231 -290 -83 10 -118 92 -75 175 10 21 30 63 43 92 l24 54 -51 -3 c-60 -3
-111 22 -126 64 l-10 25 -53 -44 c-62 -53 -278 -183 -318 -192 -62 -14 -135
59 -125 125 7 44 45 79 161 145 105 61 193 129 305 239 47 46 94 88 105 94 26
15 64 15 95 -1z m2376 -247 c26 -11 73 -43 105 -71 49 -43 59 -56 59 -83 0
-40 -29 -69 -69 -69 -20 0 -46 13 -79 41 -60 51 -88 62 -126 51 -38 -11 -46
-24 -46 -76 0 -51 25 -72 132 -109 110 -37 142 -62 178 -139 27 -55 27 -149 0
-192 -56 -93 -264 -154 -424 -124 -121 23 -236 97 -236 152 0 37 32 69 68 69
15 0 46 -13 68 -29 55 -40 101 -52 201 -53 71 -1 98 3 140 22 58 25 71 47 52
91 -11 27 -53 59 -78 59 -35 0 -131 49 -173 87 -54 52 -72 94 -71 178 0 94 50
171 133 204 42 16 115 12 166 -9z m-1290 -39 c104 -47 122 -166 40 -273 -42
-54 -97 -79 -174 -79 l-54 0 6 -31 c7 -37 44 -98 58 -98 6 0 21 11 34 25 16
17 34 25 57 25 49 0 67 -25 66 -90 -2 -45 -6 -59 -30 -82 -22 -23 -36 -28 -75
-28 -71 0 -124 20 -167 63 -98 98 -120 282 -51 421 71 141 180 197 290 147z
m-408 -11 c37 -23 62 -72 62 -122 -1 -116 -158 -456 -225 -486 -14 -7 -52 -12
-83 -12 -48 0 -68 6 -112 33 -66 40 -91 72 -97 129 -6 53 26 125 77 173 29 28
37 30 105 30 61 0 79 -4 104 -23 l31 -22 15 36 c22 53 45 134 38 134 -4 0 -28
-14 -54 -31 -41 -26 -53 -29 -76 -22 -36 12 -58 51 -49 86 11 46 131 113 206
116 14 0 40 -8 58 -19z m920 -2 c11 -13 25 -35 31 -50 l10 -28 48 24 c100 49
165 39 198 -29 28 -59 16 -137 -44 -290 -95 -242 -140 -315 -194 -315 -69 0
-86 61 -39 139 41 66 158 371 143 371 -25 0 -95 -85 -137 -165 -26 -49 -56
-100 -67 -112 -41 -45 -117 -16 -117 45 0 15 13 62 30 105 33 86 48 157 33
157 -22 0 -66 -62 -83 -116 -29 -95 -35 -167 -16 -205 22 -43 20 -85 -4 -109
-65 -65 -150 32 -150 171 1 138 49 268 126 338 96 88 188 115 232 69z m1686
-109 c31 -24 33 -56 11 -139 -8 -30 -15 -58 -15 -62 0 -5 39 21 86 57 48 36
90 65 95 65 22 0 58 -25 68 -48 17 -36 -1 -73 -55 -112 -59 -42 -154 -157
-154 -187 0 -39 60 -215 96 -281 40 -73 41 -81 13 -116 -15 -19 -30 -26 -54
-26 -43 0 -73 35 -112 132 -17 40 -34 82 -38 93 -7 15 -10 7 -15 -34 -4 -39
-12 -58 -29 -72 -31 -25 -66 -24 -92 2 -21 21 -22 28 -15 153 3 72 9 149 12
171 l7 40 -22 -27 c-52 -64 -193 -93 -268 -55 -17 9 -33 13 -37 10 -10 -10 -7
-104 5 -146 5 -21 17 -41 24 -44 8 -3 34 9 57 26 48 36 89 40 118 11 30 -30
26 -71 -12 -106 -137 -126 -278 -96 -323 69 -24 88 -17 229 14 310 45 116 144
207 225 207 88 -1 206 -89 221 -166 7 -37 10 -30 45 111 29 113 43 154 60 167
29 23 51 23 84 -3z m-5388 -648 c27 -5 119 -17 204 -26 85 -9 202 -27 260 -40
97 -22 300 -56 545 -90 112 -16 496 -41 860 -55 132 -6 373 -20 535 -31 237
-18 314 -20 390 -12 89 10 115 8 400 -33 168 -24 406 -53 530 -64 198 -18 542
-66 954 -131 71 -11 310 -65 530 -119 221 -54 455 -110 521 -125 66 -14 179
-42 250 -60 72 -19 188 -43 258 -54 78 -12 135 -25 146 -35 22 -20 77 -43 133
-55 100 -23 342 -52 378 -46 l37 6 7 -55 c12 -109 -33 -508 -78 -676 -14 -52
-45 -174 -70 -270 -46 -181 -143 -468 -221 -650 -25 -58 -58 -143 -74 -190
-97 -281 -229 -588 -302 -703 -89 -138 -113 -194 -101 -235 8 -24 7 -41 0 -57
-16 -36 -1 -90 33 -119 48 -40 69 -41 149 -6 91 40 184 54 282 42 109 -14 141
-31 169 -88 32 -66 29 -145 -9 -310 -31 -132 -80 -247 -187 -434 -70 -124
-246 -346 -425 -535 -47 -50 -137 -151 -201 -226 -188 -217 -257 -272 -373
-296 -115 -24 -182 14 -231 130 -25 60 -36 75 -68 90 -67 33 -137 -9 -152 -90
-4 -21 -25 -62 -47 -91 -63 -82 -234 -239 -284 -261 -24 -11 -44 -24 -44 -29
0 -5 -19 -12 -41 -16 -27 -4 -51 -17 -68 -35 -73 -78 -344 -234 -506 -291 -27
-10 -93 -38 -145 -63 -52 -25 -135 -57 -185 -72 -49 -15 -115 -36 -145 -47
-62 -23 -205 -61 -293 -78 l-57 -12 67 -75 c60 -66 216 -203 298 -260 56 -38
177 -83 319 -118 203 -49 251 -56 336 -49 75 6 76 6 142 -34 36 -22 83 -49
105 -60 82 -40 471 -256 520 -289 63 -41 73 -54 78 -91 2 -15 17 -51 34 -78
34 -54 47 -131 22 -126 -8 2 -20 1 -28 -2 -19 -8 0 -42 27 -51 18 -6 20 -15
20 -88 0 -77 2 -85 30 -119 17 -20 56 -49 88 -65 54 -26 66 -28 247 -33 178
-6 194 -8 245 -32 47 -23 51 -26 28 -27 -16 -1 -28 4 -28 9 0 6 -19 9 -42 9
l-43 -1 38 -8 c21 -4 43 -12 50 -19 6 -6 19 -11 29 -11 15 0 36 -10 119 -56
27 -15 134 -101 173 -139 50 -48 116 -157 116 -190 0 -8 4 -15 9 -15 6 0 12
-15 14 -32 3 -23 4 -21 2 7 l-2 40 86 3 c229 8 369 -66 479 -255 56 -95 59
-104 77 -238 13 -95 14 -130 5 -191 -14 -90 -50 -200 -86 -262 -40 -67 -172
-200 -226 -228 -91 -46 -252 -71 -350 -54 -89 16 -98 19 -98 39 0 10 -11 28
-24 40 -19 18 -33 22 -73 20 l-48 -3 -3 43 c-2 23 4 64 12 89 9 26 12 48 7 51
-13 8 7 31 54 63 68 46 192 180 220 237 23 44 27 68 29 140 1 68 -3 93 -17
114 -10 16 -17 46 -17 76 0 73 -16 71 -29 -5 -17 -94 -36 -136 -109 -243 -106
-156 -200 -230 -386 -305 -69 -28 -154 -46 -265 -57 -96 -9 -119 -7 -208 11
-55 11 -136 36 -180 54 -73 31 -193 105 -230 141 -23 24 -33 17 -17 -12 7 -16
14 -34 14 -41 0 -7 12 -18 26 -24 25 -12 25 -12 5 -20 -27 -10 -27 -45 0 -53
15 -5 18 -10 11 -17 -16 -16 62 -103 124 -138 28 -17 57 -37 64 -45 7 -8 20
-15 29 -15 9 0 22 -9 29 -20 7 -11 20 -20 29 -20 9 0 35 -9 57 -19 56 -27 235
-46 282 -31 43 15 147 15 152 0 2 -5 19 -10 37 -10 24 0 34 -5 38 -20 3 -13
14 -20 30 -20 13 0 36 -11 51 -25 36 -34 60 -45 93 -45 15 0 33 -4 39 -8 6 -4
27 -50 47 -102 52 -139 52 -139 27 -107 -27 34 -44 34 -75 1 -35 -38 -31 -50
16 -58 32 -5 46 -3 61 10 17 16 19 16 33 -2 33 -45 116 -215 109 -225 -4 -7
-3 -9 3 -6 5 3 19 -11 30 -31 20 -35 124 -336 137 -395 4 -16 7 -97 7 -180 0
-282 -47 -424 -202 -620 -54 -68 -74 -87 -87 -81 -27 11 -116 22 -124 15 -4
-3 -10 -24 -14 -47 l-6 -41 43 -7 44 -8 -80 -75 c-44 -41 -119 -106 -167 -144
-47 -39 -89 -80 -92 -92 -14 -48 -335 -229 -642 -362 l-30 -14 4 31 5 31 -32
-19 c-34 -20 -39 -32 -15 -41 10 -4 -17 -18 -73 -40 -148 -58 -328 -98 -508
-113 -71 -6 -182 -15 -245 -20 -105 -9 -289 -33 -350 -45 -24 -5 -24 -5 -6 10
19 14 19 15 -10 15 -17 0 -35 -5 -41 -11 -13 -13 -12 -14 -136 76 -101 72
-108 83 -89 137 13 37 -4 251 -23 287 -25 49 3 71 40 31 10 -11 23 -20 28 -20
5 0 29 -16 53 -35 23 -19 51 -35 61 -35 11 0 28 -6 39 -14 13 -10 23 -11 31
-4 7 6 19 8 27 5 20 -8 34 78 17 105 -6 10 -11 31 -11 47 0 17 -6 31 -16 35
-14 5 -15 1 -10 -27 8 -41 0 -51 -23 -29 -34 32 -123 107 -137 115 -8 4 -14
15 -14 22 0 8 -4 15 -10 15 -11 0 -90 76 -90 87 0 4 -17 26 -38 48 -20 22 -45
57 -54 77 -19 41 -20 41 -67 32 -37 -8 -39 -17 -7 -32 15 -6 27 -23 31 -42 4
-19 15 -34 28 -39 19 -7 16 -9 -17 -13 -34 -4 -45 1 -106 51 -38 31 -80 64
-94 74 -14 10 -26 24 -26 32 0 8 -9 15 -20 15 -22 0 -53 16 -84 42 -11 10 -29
21 -40 24 -12 4 -23 10 -26 14 -9 13 -50 22 -50 11 0 -6 9 -11 19 -11 10 0 21
-7 25 -15 3 -8 11 -15 18 -15 7 0 38 -22 68 -50 81 -74 38 -63 -77 20 -127 90
-142 103 -143 116 0 7 -20 12 -52 13 -29 0 -69 5 -88 11 -45 13 -130 13 -130
0 0 -5 -7 -10 -15 -10 -17 0 -20 -25 -5 -35 6 -3 13 1 16 10 8 21 34 1 34 -26
0 -31 -48 -115 -74 -128 -20 -11 -28 -10 -49 4 -25 16 -26 15 -38 -7 -7 -12
-13 -43 -14 -68 -1 -25 -5 -52 -8 -60 -3 -8 -7 -26 -9 -40 -2 -19 -15 -31 -56
-50 -28 -14 -55 -33 -58 -43 -3 -10 -23 -29 -44 -43 -21 -14 -40 -34 -43 -45
-3 -10 -13 -19 -23 -19 -17 0 -17 -1 0 -13 17 -12 17 -14 1 -27 -10 -8 -50
-17 -94 -20 -73 -5 -75 -6 -43 -17 37 -14 39 -19 15 -45 -23 -26 -92 -21 -76
5 9 15 4 89 -7 100 -4 5 -10 -3 -14 -17 -6 -26 -29 -34 -52 -18 -6 4 -11 29
-10 55 2 48 2 48 -23 42 -14 -4 -43 -7 -63 -6 -46 1 -54 -11 -32 -44 21 -32
58 -31 62 3 4 27 31 29 34 2 0 -11 1 -25 2 -31 1 -12 -19 -24 -148 -85 -141
-65 -244 -145 -280 -215 -14 -27 -18 -48 -13 -85 4 -41 12 -55 50 -91 25 -24
43 -43 39 -43 -14 1 -227 58 -218 59 5 1 2 9 -7 19 -14 16 -15 27 -6 80 7 40
16 62 25 62 15 0 64 46 64 60 0 14 -24 12 -38 -2 -9 -9 -12 -9 -12 3 0 8 14
20 30 27 16 8 30 20 30 28 0 17 12 18 28 2 7 -7 12 -8 12 -2 0 14 -24 64 -30
64 -3 0 -20 -13 -38 -30 -30 -27 -62 -40 -62 -24 0 18 23 43 45 48 14 4 25 13
25 21 0 8 7 15 15 15 8 0 15 7 15 15 0 8 5 15 10 15 13 0 13 -17 0 -25 -17
-10 -11 -25 9 -25 10 0 21 -9 24 -20 7 -26 33 -26 49 0 7 11 21 20 30 20 10 0
18 6 18 13 0 20 -46 59 -65 55 -15 -3 -15 -6 4 -30 26 -32 26 -38 2 -38 -12 0
-26 13 -35 32 -9 17 -16 32 -16 32 0 1 25 13 55 26 30 13 55 28 55 32 0 4 14
8 30 8 19 0 30 -5 30 -14 0 -9 12 -14 35 -14 19 0 35 4 35 8 0 5 12 10 27 12
31 3 42 25 18 34 -9 4 -25 -2 -39 -15 -34 -32 -79 -25 -53 9 17 22 95 60 122
60 13 0 27 4 30 10 3 5 24 10 46 10 27 0 38 4 33 11 -5 8 -32 10 -88 5 -65 -5
-97 -14 -161 -45 -44 -21 -91 -42 -105 -46 -14 -4 -39 -18 -56 -31 -17 -13
-36 -24 -43 -24 -17 0 -61 -31 -61 -43 0 -6 -7 -19 -17 -29 -20 -22 -88 -26
-80 -4 4 9 -12 23 -46 40 -67 34 -159 106 -172 134 -11 26 -27 23 -96 -19 -25
-16 -53 -29 -62 -29 -28 0 -28 -19 0 -37 44 -28 53 -35 101 -80 44 -42 44 -44
38 -90 l-6 -48 63 -61 c35 -34 73 -81 84 -105 12 -24 20 -45 19 -46 0 0 -41 8
-89 19 -62 15 -85 24 -78 31 21 21 11 55 -21 80 l-32 25 -41 -34 c-23 -19 -49
-34 -58 -34 -9 0 -18 -4 -21 -8 -7 -11 -116 8 -116 20 0 5 6 11 14 14 8 3 17
15 20 27 8 31 37 64 64 72 20 6 22 3 22 -29 0 -29 4 -36 19 -36 32 0 75 20 65
30 -19 18 -147 80 -180 86 -19 3 -34 10 -34 14 0 5 -9 12 -21 15 -11 4 -33 19
-48 33 -99 94 -134 123 -168 140 -21 11 -50 31 -64 44 -28 26 -39 25 -82 -5
-26 -18 -27 -21 -13 -36 23 -25 20 -40 -10 -51 -19 -8 -25 -16 -21 -30 3 -11
-3 -31 -15 -45 l-19 -25 38 0 c21 0 51 -7 67 -15 35 -19 69 -19 104 -1 15 7
45 17 67 20 34 6 44 3 60 -13 18 -21 18 -21 -2 -21 -11 0 -22 -2 -25 -5 -12
-13 21 -82 60 -126 32 -36 39 -49 27 -49 -21 0 -156 40 -170 50 -10 8 -58 20
-98 25 -12 1 -96 27 -187 58 -91 31 -196 65 -235 76 -57 17 -72 26 -82 48 -7
15 -13 32 -13 38 0 6 -12 27 -26 48 -19 29 -24 45 -19 67 5 23 3 30 -9 30 -14
0 -66 -58 -66 -75 0 -5 -7 -17 -16 -26 -15 -17 -15 -21 0 -53 9 -19 22 -36 29
-39 6 -2 9 -7 6 -10 -9 -10 -74 12 -113 38 -20 14 -43 25 -51 25 -7 0 -20 7
-29 15 -19 19 -141 80 -179 89 -36 8 -107 53 -107 66 0 6 -9 10 -20 10 -11 0
-20 5 -20 10 0 6 -7 10 -17 10 -9 0 -23 7 -32 15 -9 8 -42 39 -74 70 -32 30
-62 55 -66 55 -5 0 -14 -7 -21 -15 -17 -21 -48 -19 -62 5 -8 13 -19 18 -34 14
-13 -3 -42 5 -71 19 -47 24 -49 27 -45 61 2 19 10 41 18 47 8 6 14 19 14 28 0
9 5 22 12 29 9 9 7 12 -10 12 -14 0 -20 -5 -16 -14 3 -8 -12 -20 -45 -35 -27
-11 -54 -21 -60 -21 -18 0 -12 39 10 61 l20 20 -63 -7 c-35 -3 -71 -13 -80
-21 -9 -8 -24 -13 -34 -11 -37 7 -23 27 40 57 39 18 67 38 71 51 4 13 15 20
30 20 38 0 73 17 80 39 3 11 -2 42 -11 68 -9 26 -16 56 -16 65 1 20 -34 48
-59 48 -15 0 -16 -5 -6 -36 8 -26 8 -43 0 -65 -7 -17 -7 -31 -2 -35 18 -10 9
-25 -13 -22 -16 2 -23 10 -24 25 -1 26 -21 53 -39 53 -17 0 -81 64 -135 135
-55 73 -94 118 -141 161 -19 19 -45 53 -58 76 -12 24 -27 50 -33 59 -17 25 -3
46 35 52 19 3 57 15 86 27 38 17 51 28 51 44 0 29 -164 186 -273 261 -48 32
-97 70 -109 82 -12 13 -33 23 -50 23 -22 0 -32 -8 -49 -42 -18 -36 -20 -47
-10 -78 6 -21 11 -47 11 -59 0 -12 4 -29 10 -39 5 -9 16 -33 25 -52 8 -19 19
-42 25 -50 5 -8 32 -53 59 -100 53 -89 87 -140 134 -193 29 -33 77 -121 77
-142 0 -7 -9 -20 -20 -30 -19 -18 -20 -17 -40 29 -15 32 -27 46 -40 46 -23 0
-24 4 -8 30 7 10 8 23 4 27 -5 4 -11 2 -13 -4 -3 -7 -16 -13 -29 -13 -19 0
-24 5 -24 24 0 24 -16 36 -51 36 -10 0 -19 7 -19 15 0 8 -6 15 -13 15 -18 0
-50 57 -37 65 5 3 10 16 10 28 -1 20 -2 20 -11 5 -14 -25 -25 -22 -39 11 -6
16 -18 32 -26 35 -8 3 -14 17 -14 32 0 14 -9 37 -20 51 -11 14 -20 32 -20 40
0 8 -6 27 -14 41 -37 70 -61 171 -86 367 -10 79 -2 147 20 160 5 3 7 11 4 18
-2 7 4 22 16 32 11 10 20 23 20 29 0 18 70 89 112 113 42 25 137 47 161 37 9
-3 17 -4 17 0 0 3 -17 10 -38 15 -21 6 -48 20 -60 31 -25 24 -33 25 -26 5 4
-9 -1 -17 -12 -21 -51 -18 -102 -45 -128 -68 -16 -15 -37 -26 -47 -26 -10 0
-22 -6 -26 -13 -4 -7 -29 -25 -55 -40 -65 -38 -152 -120 -173 -163 -15 -32
-17 -56 -12 -163 4 -69 3 -146 -1 -171 l-8 -45 -18 66 c-14 53 -17 92 -14 195
3 115 8 140 37 224 34 97 154 337 223 446 21 34 38 65 38 70 0 10 88 147 135
212 17 23 37 41 46 42 9 0 23 8 30 17 13 15 12 16 -9 11 -21 -6 -21 -5 7 30
16 21 41 48 55 61 l26 24 0 -22 c0 -14 5 -21 13 -18 6 2 20 0 30 -5 12 -6 17
-5 17 7 0 9 9 15 21 15 12 0 19 5 16 13 -2 6 -15 12 -28 12 -20 0 -23 4 -21
25 6 42 49 90 81 90 121 0 292 129 350 263 11 25 24 48 30 51 6 4 11 16 11 26
0 10 7 25 15 34 8 8 15 23 14 33 0 10 -3 13 -6 6 -2 -7 -11 -13 -18 -13 -8 0
-20 -10 -26 -22 -8 -14 -14 -18 -17 -10 -9 27 -23 10 -17 -22 8 -39 -11 -59
-23 -26 -8 21 -8 21 -27 -4 -11 -14 -25 -26 -32 -26 -6 0 -14 -9 -18 -20 -3
-10 -27 -37 -52 -59 -24 -22 -43 -46 -41 -52 2 -7 20 -18 39 -25 l34 -12 -37
-1 c-28 -1 -38 3 -38 14 0 8 -9 15 -20 15 -16 0 -7 17 50 89 82 104 179 189
192 169 6 -10 8 -8 8 5 0 16 32 35 67 41 7 1 20 10 31 19 10 9 24 17 30 17 7
0 12 4 12 9 0 5 33 22 74 39 l74 30 22 -23 c34 -36 19 -99 -36 -152 -24 -24
-48 -43 -53 -43 -6 0 -30 -11 -53 -24 -35 -20 -50 -38 -88 -112 -25 -49 -51
-95 -58 -103 -8 -8 -11 -22 -9 -33 3 -10 1 -16 -4 -13 -4 3 -26 -12 -49 -35
-23 -23 -34 -40 -26 -40 14 0 86 38 96 50 3 4 41 30 85 59 56 36 87 64 105 95
14 23 37 61 52 83 15 23 30 54 34 70 4 15 13 34 21 41 7 7 13 25 13 40 1 74
167 175 309 188 53 5 79 12 93 26 22 22 59 18 97 -11 21 -16 28 -16 60 -5 20
7 53 13 73 14 33 0 39 -4 54 -35 16 -34 16 -37 -1 -55 -10 -11 -30 -20 -44
-20 -23 1 -24 2 -8 11 9 5 17 19 17 29 0 16 -7 20 -32 20 -25 0 -29 -3 -20
-12 23 -23 14 -40 -20 -37 -32 3 -106 -14 -140 -32 -10 -5 -29 -9 -42 -9 -34
0 -158 -61 -210 -104 -29 -24 -45 -45 -48 -65 -4 -28 -2 -30 26 -27 17 2 51
12 76 23 25 11 70 27 100 37 30 10 69 22 85 28 17 5 47 13 68 18 21 4 59 21
85 37 38 23 53 28 72 21 20 -7 28 -3 52 24 61 71 77 84 124 108 88 45 97 66
27 62 -62 -3 -153 18 -166 39 -16 26 -1 49 31 49 37 0 165 32 217 54 22 10 60
24 85 33 25 8 68 26 97 39 85 38 201 74 242 74 23 0 48 8 64 20 14 11 61 30
104 41 177 47 187 48 151 9 -20 -21 -20 -23 -3 -16 29 11 123 36 173 47 24 5
46 11 50 13 4 2 50 11 102 19 87 14 204 20 630 33 85 2 163 7 173 10 10 3 17
0 17 -9 0 -14 -52 -33 -100 -36 -14 -1 -52 -8 -85 -15 l-60 -14 120 4 c66 2
134 6 151 10 47 9 49 -10 5 -45 -55 -43 -63 -46 -276 -95 -61 -14 -86 -15
-195 -4 -137 14 -312 14 -337 -1 -12 -6 5 -11 58 -16 77 -7 204 -36 237 -54
24 -13 165 -28 335 -37 111 -5 131 -9 147 -26 l19 -21 48 23 c116 55 149 61
303 59 134 -2 148 -1 190 21 66 34 100 42 106 25 6 -15 -70 -95 -90 -95 -13
-1 -46 -25 -46 -34 0 -3 11 -6 25 -6 14 0 25 5 25 10 0 6 5 10 10 10 16 0 12
-37 -5 -44 -25 -9 -7 -30 47 -55 48 -22 56 -23 98 -12 25 7 98 17 162 24 101
9 125 8 170 -5 29 -9 79 -19 110 -23 32 -3 60 -11 64 -16 14 -24 -19 -36 -113
-43 -96 -7 -123 -16 -123 -42 0 -8 -10 -16 -22 -19 -46 -10 -194 -26 -241 -25
-41 1 -49 -2 -54 -19 -4 -17 -9 -19 -24 -11 -13 8 -29 6 -54 -4 -20 -9 -70
-22 -112 -31 -42 -9 -80 -18 -84 -20 -7 -5 -92 -16 -138 -19 -13 0 -26 5 -28
12 -3 8 7 12 31 12 20 0 36 5 36 10 0 6 16 10 35 10 19 0 35 5 35 11 0 7 -11
9 -32 5 -18 -4 -50 -10 -70 -13 -21 -3 -42 -11 -49 -19 -7 -8 -30 -14 -55 -14
-24 0 -69 -7 -101 -15 -31 -8 -73 -15 -93 -15 -21 0 -55 -12 -85 -30 -27 -16
-65 -30 -82 -30 -38 0 -38 1 -18 -47 9 -20 13 -43 11 -50 -7 -16 3 -43 15 -43
5 0 9 12 9 26 0 21 4 25 23 22 17 -2 22 -10 22 -33 1 -16 12 -46 25 -65 25
-35 31 -40 50 -40 7 0 9 -31 6 -90 -4 -74 -3 -90 9 -90 8 0 15 5 15 11 0 5 5
7 12 3 9 -6 9 -9 0 -12 -15 -5 -16 -34 0 -50 8 -8 8 -15 0 -24 -6 -8 -7 -19
-3 -27 6 -9 26 5 72 50 138 135 328 229 564 280 22 4 65 9 95 9 l55 2 -35 15
c-19 8 -45 25 -57 36 -13 12 -39 36 -59 52 -20 17 -48 41 -63 55 l-26 25 28 3
c19 2 27 9 27 23 0 10 4 19 9 19 5 0 22 5 38 12 33 13 55 11 65 -6 4 -7 35
-30 70 -51 35 -21 72 -45 83 -54 18 -15 43 -26 175 -76 19 -7 77 -18 129 -24
80 -10 97 -10 117 4 16 10 48 15 98 15 79 0 109 6 100 21 -3 5 20 9 50 9 31 0
56 5 56 10 0 6 24 10 53 11 43 0 48 2 29 10 -13 5 -63 8 -112 6 -117 -4 -449
18 -497 33 -21 7 -45 18 -53 25 -8 7 -46 29 -85 50 -90 49 -122 85 -74 85 11
0 28 4 38 10 30 15 567 22 726 9 77 -6 145 -15 150 -19 6 -4 39 -13 74 -20 57
-12 62 -15 45 -27 -16 -11 -11 -13 40 -13 48 0 56 -3 54 -17 -2 -11 7 -19 32
-25 45 -12 112 -81 127 -131 10 -34 9 -41 -8 -58 -26 -26 -24 -31 9 -28 15 2
49 -5 75 -16 45 -17 51 -17 76 -2 28 16 144 27 157 14 4 -4 0 -7 -9 -7 -25 0
-21 -17 6 -23 12 -3 50 -9 85 -13 l63 -7 -16 -23 c-20 -30 -19 -34 5 -34 12 0
31 -6 43 -14 12 -8 45 -17 72 -21 89 -11 89 -27 0 -21 -44 3 -86 2 -94 -3 -26
-16 6 -47 71 -69 35 -12 88 -31 118 -43 74 -29 174 -56 237 -64 29 -4 55 -11
59 -16 3 -5 12 -9 20 -9 12 0 12 4 -3 28 -9 15 -21 32 -27 37 -6 6 -25 37 -42
70 -17 33 -37 61 -45 62 -8 1 -41 5 -74 9 -55 7 -57 8 -25 14 19 3 48 2 63 -3
15 -5 30 -7 32 -5 7 6 5 68 -4 158 -6 62 -4 101 6 145 18 82 53 187 67 205 7
8 21 32 31 53 28 54 175 203 216 220 9 3 7 6 -7 6 -21 1 -104 -54 -104 -69 0
-14 -63 -31 -74 -20 -6 6 -4 12 7 16 23 8 21 21 -4 34 -15 9 -28 9 -50 0 -24
-10 -37 -9 -84 11 -47 19 -60 21 -88 12 -69 -24 -111 -25 -139 -4 -19 15 -34
19 -60 15 -30 -5 -38 -2 -57 22 -12 15 -28 50 -37 78 -10 36 -29 66 -64 101
-67 67 -65 43 8 -90 31 -58 63 -118 71 -133 8 -15 17 -29 20 -32 11 -9 31 -61
31 -81 0 -10 11 -29 25 -41 37 -32 85 -126 85 -165 0 -42 -15 -42 -36 0 -9 17
-25 38 -35 45 -11 7 -19 21 -19 30 0 9 -11 30 -24 47 -18 22 -27 27 -37 19
-17 -13 -79 9 -79 28 0 41 -78 148 -87 121 -7 -19 -44 -16 -78 7 -18 12 -47
20 -72 20 -24 0 -62 10 -91 25 -28 14 -57 25 -66 25 -23 0 -20 -21 4 -27 23
-6 27 -23 6 -23 -27 0 -45 12 -39 26 3 8 2 14 -3 13 -5 -1 -18 -1 -29 0 -19 2
-19 2 3 14 l23 13 -21 19 c-11 10 -20 24 -20 31 0 26 -43 54 -81 54 -50 0 -92
-19 -79 -35 16 -19 -15 -41 -35 -25 -8 7 -27 10 -41 7 -25 -4 -64 17 -64 35 0
12 48 10 55 -2 8 -13 65 -13 65 0 0 12 -48 32 -64 27 -6 -2 -16 3 -22 11 -15
20 -66 8 -58 -13 5 -11 -1 -15 -21 -15 -20 0 -26 4 -22 15 8 20 -44 55 -83 55
-23 0 -33 5 -37 20 -5 18 -15 20 -102 22 -122 3 -138 2 -183 -7 -38 -8 -103
10 -93 24 7 13 -108 39 -175 40 -41 0 -84 -7 -118 -19 -29 -11 -67 -20 -85
-20 -31 0 -31 0 -12 19 43 40 190 87 385 122 30 5 73 15 95 20 22 6 57 13 78
16 43 6 45 12 16 36 -15 13 -18 22 -10 31 7 8 6 24 -3 50 -15 45 -33 58 -58
45 -14 -8 -19 -5 -24 16 -9 36 -39 29 -40 -9 -1 -40 -44 -76 -89 -76 -19 0
-53 -7 -75 -16 -44 -18 -87 -14 -140 12 -32 17 -77 13 -190 -16 -66 -17 -92
-18 -137 -4 -50 15 -93 10 -93 -12 0 -8 -3 -14 -6 -14 -11 0 -31 25 -27 35 1
6 -11 11 -28 11 -40 2 -52 21 -32 51 11 17 13 27 6 34 -17 17 -53 -8 -53 -35
0 -13 -7 -29 -15 -36 -9 -8 -12 -22 -8 -41 7 -38 -17 -48 -53 -20 -15 12 -34
21 -44 21 -23 0 -45 27 -59 72 -15 46 -26 54 -78 61 -34 4 -46 0 -75 -23 -18
-15 -43 -32 -55 -39 -13 -6 -23 -18 -23 -26 0 -11 -12 -15 -44 -15 -25 0 -57
-5 -72 -10 -21 -8 -31 -7 -45 6 -14 12 -29 15 -61 10 -45 -7 -70 -7 -128 -3
-29 2 -38 8 -49 34 -11 25 -23 34 -48 39 -19 4 -37 4 -40 1 -3 -4 -21 0 -39 8
-19 8 -34 12 -34 10 0 -11 -82 40 -88 54 -3 9 -10 19 -15 23 -17 11 20 57 163
198 102 101 144 151 169 198 47 90 100 126 188 129 36 0 70 6 76 12 6 6 19 11
30 11 10 0 15 5 12 10 -3 6 -24 10 -45 10 -21 0 -41 4 -44 9 -3 5 18 23 48 40
45 25 70 31 145 37 66 5 91 4 91 -5 0 -18 40 -13 58 8 10 10 44 29 77 41 101
37 244 128 322 206 40 40 82 75 93 79 11 3 20 9 20 13 0 4 -100 31 -223 61
-322 78 -369 93 -625 205 -144 63 -231 88 -459 131 -103 20 -330 98 -458 159
-53 25 -133 71 -178 102 -166 116 -380 316 -436 409 -179 297 -186 313 -330
781 -45 147 -86 313 -96 390 -9 69 -35 109 -80 124 -58 19 -105 -7 -145 -81
-39 -73 -52 -81 -105 -63 -101 35 -144 102 -267 409 -21 55 -52 123 -68 150
-32 56 -97 266 -141 455 -69 295 -53 792 32 961 29 59 83 113 158 156 42 26
44 26 90 10 103 -35 165 -66 188 -96 34 -43 77 -64 116 -56 57 13 82 44 97
125 10 54 0 89 -40 135 -33 39 -40 120 -42 475 -1 273 2 373 16 480 25 204 71
418 123 580 76 234 295 650 342 650 5 0 30 -4 57 -9z m-4266 -1437 c0 -15 -30
-34 -54 -34 -19 0 -21 25 -4 44 15 16 58 9 58 -10z m615 -2069 c128 -29 251
-68 315 -100 179 -90 321 -271 463 -590 242 -545 264 -657 207 -1095 -26 -196
-39 -253 -111 -480 -71 -224 -99 -326 -124 -460 -25 -133 -71 -321 -100 -410
-24 -72 -49 -112 -170 -270 -23 -30 -54 -79 -69 -108 l-27 -54 11 -116 c6 -64
15 -141 20 -170 5 -29 6 -62 1 -75 -9 -24 12 -384 28 -481 11 -61 8 -76 -12
-76 -15 0 -124 -54 -154 -76 -21 -15 -22 -14 -41 23 -11 21 -57 87 -102 148
-45 60 -93 130 -105 155 -51 98 -137 216 -251 342 -131 145 -195 193 -295 223
-36 11 -81 33 -102 51 -25 21 -54 34 -85 39 -56 8 -120 53 -241 169 -139 134
-201 229 -369 561 -126 250 -198 457 -301 871 -108 431 -124 581 -92 854 23
198 54 317 125 486 77 182 209 347 353 441 91 59 325 163 435 192 l70 19 47
-25 48 -24 74 26 c41 14 101 30 134 35 101 15 297 3 420 -25z m11121 -2247
c-4 -56 -20 -134 -52 -243 -26 -88 -52 -180 -59 -205 -7 -25 -22 -69 -34 -98
-12 -29 -21 -59 -21 -67 0 -28 -21 -68 -30 -59 -6 6 -3 24 10 49 11 22 20 52
20 68 0 16 11 61 25 100 13 40 31 99 39 132 8 33 28 105 44 160 16 55 34 133
42 173 7 39 15 72 17 72 2 0 2 -37 -1 -82z m806 -122 c-17 -90 -50 -168 -161
-375 -55 -102 -114 -217 -130 -256 -186 -435 -365 -845 -406 -930 -18 -38 -37
-86 -40 -105 -4 -19 -13 -47 -20 -61 -10 -19 -11 -43 -5 -93 10 -82 37 -116
116 -145 46 -18 57 -18 107 -7 30 7 72 23 92 35 61 36 222 190 288 276 33 44
120 141 192 215 72 74 151 164 175 200 55 81 344 376 465 474 104 85 202 149
214 141 15 -8 -28 -105 -76 -175 -25 -36 -137 -155 -247 -265 -111 -110 -224
-226 -251 -257 -28 -31 -142 -156 -254 -278 -221 -238 -236 -257 -314 -400
-28 -52 -67 -113 -87 -135 -20 -22 -81 -96 -135 -165 -55 -69 -124 -152 -154
-185 -64 -69 -211 -190 -256 -210 -16 -7 -77 -34 -135 -60 -58 -26 -139 -58
-180 -72 l-74 -24 -20 28 c-10 15 -51 60 -90 98 -57 56 -90 79 -159 110 -82
37 -88 42 -82 65 4 14 11 106 16 205 22 421 33 467 184 770 46 94 95 199 109
235 13 36 65 155 115 266 49 111 108 261 131 335 22 73 43 135 45 138 10 10
17 -9 10 -26 -5 -10 -7 -22 -6 -27 1 -4 -7 -52 -18 -105 -33 -162 -71 -445
-71 -521 1 -48 28 -128 48 -139 10 -5 32 -30 51 -55 20 -27 52 -54 78 -66 40
-18 46 -19 78 -6 56 24 101 82 170 221 36 72 93 181 129 243 42 76 89 182 141
325 49 131 116 287 176 407 53 107 118 239 143 293 24 53 55 111 67 128 20 28
23 30 32 13 7 -11 6 -37 -1 -78z m-1002 -580 c0 -3 -4 -8 -10 -11 -5 -3 -10
-1 -10 4 0 6 5 11 10 11 6 0 10 -2 10 -4z m-5740 -1421 c0 -8 -9 -15 -20 -15
-20 0 -26 11 -13 23 12 13 33 7 33 -8z m-4438 -341 c219 -25 272 -44 373 -137
49 -44 73 -80 132 -188 82 -153 106 -219 129 -351 19 -111 14 -227 -15 -311
-43 -123 -199 -303 -306 -353 -72 -34 -233 -59 -294 -47 -29 6 -58 6 -72 1
-35 -13 -96 -2 -165 31 -155 73 -234 203 -318 521 -41 153 -50 267 -32 380 45
278 134 408 306 444 41 8 86 17 100 19 14 3 26 5 27 6 0 0 61 -6 135 -15z
m5030 -616 c-9 -9 -15 -9 -24 0 -9 9 -7 12 12 12 19 0 21 -3 12 -12z m-3592
-16 c0 -43 -92 -129 -120 -112 -9 6 -7 10 9 15 11 3 21 12 21 19 0 13 70 94
83 95 4 1 7 -7 7 -17z m3150 -2 c25 -13 38 -79 19 -91 -23 -14 -29 -10 -29 17
0 15 -7 32 -17 39 -9 7 -14 19 -10 29 7 19 12 19 37 6z m1370 -10 c0 -5 -9
-10 -20 -10 -11 0 -20 5 -20 10 0 6 9 10 20 10 11 0 20 -4 20 -10z m-981 -26
c8 -8 -6 -15 -37 -19 -17 -2 -42 -11 -54 -19 -12 -9 -29 -16 -36 -16 -7 0 -32
-13 -55 -28 -23 -16 -58 -34 -77 -42 -19 -7 -39 -17 -44 -22 -6 -4 -14 -8 -18
-8 -17 0 -7 19 27 54 19 20 35 40 35 45 0 15 70 54 109 62 34 7 141 2 150 -7z
m309 -50 c37 -10 25 -23 -14 -14 -19 5 -38 11 -41 14 -8 8 26 7 55 0z m-4018
-94 c8 -15 6 -21 -9 -30 -11 -5 -25 -10 -31 -10 -6 0 -18 -6 -25 -14 -8 -7
-25 -11 -39 -9 -21 4 -24 8 -15 24 5 11 20 19 34 19 18 0 25 5 25 20 0 27 45
27 60 0z m-946 -843 l17 -57 -32 -88 c-39 -103 -38 -100 -49 -82 -18 28 -100
242 -100 259 0 13 16 21 63 32 74 17 77 15 101 -64z m760 -936 c21 -23 4 -38
-18 -15 -17 17 -21 34 -8 34 5 0 17 -9 26 -19z m141 -22 c10 -15 -1 -23 -20
-15 -9 3 -13 10 -10 16 8 13 22 13 30 -1z m-85 -187 c-6 -2 -17 2 -26 9 -12
10 -12 14 -2 20 8 6 18 2 26 -9 8 -11 9 -18 2 -20z m160 -202 c0 -5 -9 -10
-20 -10 -11 0 -20 5 -20 10 0 6 9 10 20 10 11 0 20 -4 20 -10z m41 -36 c11
-14 10 -18 -5 -30 -24 -17 -36 -10 -36 22 0 28 21 32 41 8z m-103 -39 c18 -25
32 -48 32 -52 0 -4 7 -15 17 -25 22 -25 -2 -23 -27 2 -11 11 -20 27 -20 35 0
8 -11 22 -24 30 -13 9 -26 25 -29 35 -9 35 18 22 51 -25z m10021 35 c46 -6 96
-17 110 -24 14 -7 53 -16 86 -20 33 -4 121 -18 195 -31 74 -13 205 -36 290
-50 85 -15 191 -37 235 -50 44 -13 108 -30 142 -39 34 -8 96 -30 137 -47 72
-30 77 -34 87 -73 6 -23 9 -69 5 -106 -6 -63 -8 -67 -60 -115 -65 -60 -127
-83 -326 -120 -140 -25 -452 -49 -620 -48 -176 2 -494 23 -650 43 -268 35
-437 90 -556 180 -49 37 -53 43 -59 93 -6 43 -3 62 13 93 23 44 122 143 168
167 110 57 329 115 519 137 189 22 184 22 284 10z m-10192 -52 c-3 -7 -5 -2
-5 12 0 14 2 19 5 13 2 -7 2 -19 0 -25z m109 -25 c-11 -11 -19 6 -11 24 8 17
8 17 12 0 3 -10 2 -21 -1 -24z m209 -123 c8 -13 -5 -13 -25 0 -13 8 -13 10 2
10 9 0 20 -4 23 -10z m159 -61 c16 -1 14 -3 -9 -10 -16 -4 -32 -5 -35 0 -3 5
-12 11 -20 14 -8 2 -2 3 14 1 16 -2 38 -4 50 -5z m-164 -7 c0 -5 -13 -7 -30
-4 -16 2 -30 6 -30 8 0 2 14 4 30 4 17 0 30 -4 30 -8z m85 -52 c3 -5 -1 -10
-9 -10 -8 0 -18 5 -21 10 -3 6 1 10 9 10 8 0 18 -4 21 -10z m4315 -176 c8 -3
43 -6 76 -7 43 -1 68 -7 81 -19 11 -10 30 -18 42 -18 30 0 71 -29 82 -57 5
-13 17 -23 27 -23 24 0 59 -26 49 -36 -4 -5 -12 -2 -17 6 -8 13 -11 13 -25 -1
-15 -15 -14 -17 9 -33 14 -9 26 -24 26 -33 0 -9 10 -27 22 -40 12 -13 16 -23
10 -23 -7 0 -12 -11 -12 -25 0 -26 18 -33 37 -14 6 6 16 8 21 5 12 -7 4 -46
-9 -46 -5 0 -9 -9 -9 -20 0 -22 10 -26 28 -8 8 8 15 8 27 -2 17 -14 21 -50 5
-50 -18 0 -11 -19 11 -31 18 -9 20 -8 15 9 -6 17 -3 19 13 15 11 -3 24 -17 29
-32 l9 -26 16 30 16 30 1 -30 c0 -17 4 -35 8 -40 25 -29 38 -149 25 -232 l-5
-32 -47 24 c-56 29 -84 40 -136 55 -22 7 -53 18 -70 25 -16 7 -62 23 -102 34
-40 12 -75 26 -78 31 -9 15 42 43 97 51 27 5 66 17 87 27 50 26 52 57 6 102
-24 23 -35 43 -35 62 0 36 -34 83 -80 111 -19 11 -38 25 -41 30 -4 5 -24 13
-45 17 -107 22 -281 72 -327 94 -29 13 -65 28 -80 31 -41 11 -32 25 15 25 45
0 78 22 78 51 0 12 9 19 28 21 32 4 101 -1 122 -8z m-7861 -84 c46 -6 96 -17
110 -24 14 -7 53 -16 86 -20 33 -4 121 -18 195 -31 74 -13 205 -36 290 -50 85
-15 191 -37 235 -50 44 -13 108 -30 142 -39 34 -8 96 -30 137 -47 72 -30 77
-34 87 -73 6 -23 9 -69 5 -106 -6 -63 -8 -67 -60 -115 -65 -60 -127 -83 -326
-120 -140 -25 -452 -49 -620 -48 -176 2 -494 23 -650 43 -268 35 -437 90 -556
180 -49 37 -53 43 -59 93 -6 43 -3 62 13 93 23 45 122 143 169 167 89 47 320
114 438 128 273 32 260 32 364 19z m8255 -111 c-10 -16 -24 -9 -24 12 0 18 2
19 15 9 8 -7 12 -16 9 -21z m46 -55 c0 -12 -4 -12 -25 2 -14 9 -22 20 -19 25
8 13 44 -9 44 -27z m17 -36 c-3 -8 -6 -5 -6 6 -1 11 2 17 5 13 3 -3 4 -12 1
-19z m6629 -14 c91 -30 152 -92 140 -140 -14 -55 -102 -130 -228 -195 -66 -33
-124 -57 -129 -52 -4 4 4 33 19 64 15 31 50 120 77 198 28 77 55 141 61 141 6
0 33 -7 60 -16z m-7511 -24 c0 -8 -8 -16 -17 -18 -13 -2 -18 3 -18 18 0 15 5
20 18 18 9 -2 17 -10 17 -18z m921 -8 c11 -7 34 -46 34 -57 0 -4 -7 0 -15 7
-8 7 -21 19 -30 26 -26 22 -16 43 11 24z m-3596 -67 c0 -14 -4 -25 -10 -25
-11 0 -14 33 -3 43 11 11 13 8 13 -18z m2920 -8 c0 -30 -10 -40 -27 -26 -20
18 -16 49 7 49 14 0 20 -7 20 -23z m740 -18 c0 -24 -23 -21 -28 4 -2 10 3 17
12 17 10 0 16 -9 16 -21z m-632 -6 c-4 -22 -48 -31 -48 -10 0 19 10 27 32 27
13 0 18 -6 16 -17z m162 -22 c0 -32 -92 -49 -98 -19 -4 23 55 49 81 36 9 -5
17 -12 17 -17z m-273 -56 c26 -11 33 -19 26 -26 -8 -8 -38 -8 -104 1 -103 13
-122 20 -93 31 33 13 133 10 171 -6z m-1397 -95 c0 -11 -6 -20 -14 -20 -8 0
-17 -6 -19 -12 -3 -7 -6 -5 -6 6 -1 10 7 25 17 32 22 17 22 17 22 -6z m1660
-20 c8 -4 34 -11 58 -15 24 -4 56 -13 70 -21 15 -8 38 -14 53 -14 14 0 29 -4
35 -8 5 -5 38 -19 74 -32 93 -32 182 -76 284 -137 92 -56 179 -130 170 -144
-10 -16 -61 -9 -78 10 -10 11 -35 31 -56 46 -32 22 -42 25 -59 15 -47 -24
-181 55 -181 107 0 16 -19 27 -97 57 -54 20 -132 50 -173 66 -41 16 -91 33
-110 39 -48 14 -124 42 -130 48 -7 7 123 -8 140 -17z m-1045 -48 c106 -41 219
-98 272 -138 17 -13 43 -24 57 -24 14 0 26 -4 26 -8 0 -5 10 -14 23 -20 12 -6
54 -30 92 -52 39 -22 80 -45 92 -50 12 -5 50 -30 85 -55 l62 -45 -36 0 c-30 0
-37 4 -42 24 -4 18 -19 29 -53 42 -27 10 -54 24 -61 31 -7 7 -21 13 -29 13 -9
0 -24 6 -32 13 -9 8 -54 29 -101 47 -47 18 -103 41 -125 50 -22 10 -69 30
-105 45 -36 15 -71 32 -78 38 -7 5 -35 20 -62 33 -85 39 -145 94 -102 94 9 0
62 -17 117 -38z m-678 -87 c-3 -19 -1 -35 4 -35 5 0 9 -5 9 -11 0 -7 8 -18 18
-25 16 -13 16 -13 -3 -14 -12 0 -26 5 -33 12 -13 13 -17 90 -5 101 12 13 15 7
10 -28z m5843 -94 c20 -62 32 -115 28 -118 -5 -2 -33 14 -63 37 -51 39 -75 78
-75 121 0 22 49 81 63 76 6 -2 27 -54 47 -116z m-5372 61 c5 -17 -33 -15 -48
3 -19 22 -2 39 23 22 11 -7 23 -19 25 -25z m183 -3 c8 -16 6 -19 -15 -19 -23
0 -41 23 -31 40 8 13 34 1 46 -21z m-5265 -85 c91 -30 152 -92 140 -140 -14
-55 -102 -130 -228 -195 -66 -33 -124 -57 -129 -52 -4 4 4 33 19 64 15 31 50
120 77 198 28 77 55 141 61 141 6 0 33 -7 60 -16z m5082 -1 c2 -8 -5 -13 -17
-13 -21 0 -35 13 -24 24 10 10 36 3 41 -11z m233 6 c19 -10 79 -85 79 -99 0
-13 -142 -19 -192 -9 -37 8 -48 15 -44 26 4 8 9 27 12 41 4 15 11 33 17 40 12
15 101 16 128 1z m8374 -48 c18 -36 8 -71 -33 -113 -30 -32 -69 -39 -57 -10 5
9 19 47 33 85 13 37 28 67 33 67 5 0 15 -13 24 -29z m-6866 -40 c13 -8 8 -31
-7 -31 -17 1 -34 19 -28 29 9 13 16 14 35 2z m2061 -351 c41 -6 107 -19 145
-29 39 -11 138 -31 220 -46 368 -63 484 -85 545 -104 36 -11 93 -26 127 -35
34 -8 96 -30 137 -47 72 -30 77 -34 87 -73 6 -23 9 -69 5 -106 -6 -63 -8 -67
-60 -115 -41 -38 -71 -56 -123 -73 -116 -37 -328 -71 -523 -82 -441 -27 -734
-21 -924 20 -50 11 -113 22 -141 26 -153 19 -343 90 -441 164 -49 37 -53 43
-59 93 -6 43 -3 62 13 93 23 45 122 143 169 167 89 47 320 114 438 128 268 32
280 32 385 19z m-11770 -119 c20 -62 32 -115 28 -118 -5 -2 -33 14 -63 37 -51
39 -75 78 -75 121 0 22 49 81 63 76 6 -2 27 -54 47 -116z m3235 -70 c18 -36 8
-71 -33 -113 -30 -32 -69 -39 -57 -10 5 9 19 47 33 85 13 37 28 67 33 67 5 0
15 -13 24 -29z m1888 -445 c50 -8 139 -17 197 -21 164 -10 426 -42 452 -56 13
-6 30 -18 39 -26 24 -21 120 -77 154 -90 17 -7 58 -19 92 -27 34 -8 96 -30
137 -47 69 -29 77 -35 86 -68 5 -20 10 -44 10 -53 0 -9 4 -20 10 -23 17 -10
32 -86 25 -127 -9 -54 -63 -112 -123 -133 -30 -11 -106 -20 -207 -26 -88 -5
-200 -17 -250 -27 -106 -20 -231 -19 -667 3 -572 29 -832 85 -1004 215 -49 37
-53 43 -59 93 -9 70 12 112 92 188 82 78 131 101 338 159 118 34 184 44 420
64 83 8 153 14 158 15 4 0 49 -5 100 -13z m8177 -184 c0 -5 29 -53 65 -107
l65 -99 -22 -23 c-32 -34 -258 -147 -270 -135 -6 6 -4 18 6 34 8 13 41 91 72
173 30 82 58 153 60 157 7 11 24 10 24 0z m-2847 -478 c18 -60 64 -119 119
-152 31 -18 41 -37 33 -62 -15 -49 -79 -20 -173 79 -80 83 -89 119 -46 171 15
17 31 29 38 27 6 -2 19 -30 29 -63z m3252 -123 c18 -36 8 -71 -33 -113 -30
-32 -69 -39 -57 -10 5 9 19 47 33 85 13 37 28 67 33 67 5 0 15 -13 24 -29z
m-7099 -17 c89 -30 152 -92 140 -138 -9 -35 -70 -104 -137 -154 -62 -46 -208
-107 -222 -93 -4 4 -1 21 7 37 34 64 89 202 122 307 10 31 23 57 29 57 6 0 34
-7 61 -16z m2213 -74 c46 -6 96 -17 110 -24 14 -7 53 -16 86 -20 57 -6 108
-15 505 -86 96 -18 236 -37 310 -44 139 -13 177 -25 216 -68 42 -46 59 -98 58
-182 l0 -79 -56 -52 c-42 -38 -73 -56 -125 -73 -103 -33 -320 -70 -483 -81
-80 -6 -271 -20 -425 -31 -154 -11 -292 -22 -307 -25 -40 -6 -379 31 -488 54
-205 44 -377 162 -416 286 l-17 54 29 57 c23 45 39 64 75 84 25 14 65 39 88
57 74 55 322 136 476 154 273 32 260 32 364 19z m-6880 -151 c47 -5 94 -15
105 -21 39 -21 186 -38 237 -27 41 9 68 5 216 -29 92 -22 229 -58 303 -80 74
-22 163 -47 197 -56 34 -8 96 -30 137 -47 72 -30 77 -34 87 -73 6 -23 9 -69 5
-106 -6 -63 -8 -67 -60 -115 -41 -38 -71 -56 -123 -73 -117 -37 -328 -71 -533
-83 -229 -15 -315 -15 -585 0 -313 17 -477 42 -807 123 -57 13 -120 67 -135
113 -46 155 37 287 227 360 104 40 279 86 365 96 273 32 260 32 364 18z m1781
-328 c20 -62 32 -115 28 -118 -5 -2 -33 14 -63 37 -51 39 -75 78 -75 121 0 22
49 81 63 76 6 -2 27 -54 47 -116z m3235 -70 c18 -36 8 -71 -33 -113 -30 -32
-69 -39 -57 -10 5 9 19 47 33 85 13 37 28 67 33 67 5 0 15 -13 24 -29z m-3339
-318 c35 -38 55 -78 70 -142 17 -70 3 -105 -68 -172 -59 -55 -157 -119 -182
-119 -9 0 -34 -9 -56 -20 -45 -23 -50 -24 -50 -9 0 23 74 195 97 225 23 31
103 208 103 229 0 17 22 35 42 35 11 0 30 -12 44 -27z m6938 -9 c27 -26 18
-50 -44 -125 -69 -82 -100 -108 -162 -133 -24 -10 -63 -27 -87 -38 -24 -10
-47 -16 -52 -11 -4 4 5 35 21 68 15 33 40 97 56 142 29 88 50 107 105 96 13
-2 42 0 64 5 60 15 82 14 99 -4z m-3014 -473 c20 -62 32 -115 28 -118 -5 -2
-33 14 -63 37 -51 39 -75 78 -75 121 0 22 49 81 63 76 6 -2 27 -54 47 -116z
m-6880 -150 c20 -62 32 -115 28 -118 -5 -2 -33 14 -63 37 -51 39 -75 78 -75
121 0 22 49 81 63 76 6 -2 27 -54 47 -116z m10145 69 c15 -24 -72 -160 -102
-160 -11 0 -43 33 -43 44 0 14 68 117 88 133 15 12 44 4 57 -17z m-6895 -140
c37 -34 35 -40 -34 -117 -48 -53 -88 -72 -112 -52 -23 19 -16 47 21 75 19 14
45 48 58 75 12 27 25 49 28 49 4 0 21 -13 39 -30z"/>
<path d="M11121 18923 c-38 -46 -39 -53 -2 -53 30 0 53 16 72 52 12 22 12 23
-17 32 -17 5 -29 -1 -53 -31z"/>
<path d="M10536 18655 c-22 -33 -21 -34 20 -51 35 -15 38 -14 57 5 l21 21 -24
25 c-30 32 -53 32 -74 0z"/>
<path d="M13009 18684 c-11 -14 -10 -18 6 -30 21 -16 63 -18 83 -5 11 6 7 13
-14 30 -32 25 -57 27 -75 5z"/>
<path d="M13251 18614 c0 -11 3 -14 6 -6 3 7 2 16 -1 19 -3 4 -6 -2 -5 -13z"/>
<path d="M9708 17146 c-84 -24 -154 -78 -189 -148 -20 -39 -22 -54 -64 -383
-14 -110 -30 -213 -35 -229 -6 -16 -17 -68 -25 -116 -30 -175 24 -293 164
-359 43 -20 71 -26 121 -25 79 1 124 19 184 74 53 49 82 106 91 175 3 28 14
86 25 130 10 44 26 139 35 210 8 72 23 186 31 255 17 141 14 183 -20 257 -58
123 -196 193 -318 159z"/>
<path d="M12493 16772 c-120 -43 -148 -76 -238 -284 -61 -142 -101 -262 -156
-473 -70 -266 -80 -320 -67 -378 22 -105 72 -167 171 -213 148 -67 318 5 376
159 11 32 21 64 21 72 0 25 90 365 120 457 16 48 50 132 74 185 24 54 50 118
56 142 30 114 -42 261 -153 315 -72 35 -139 41 -204 18z"/>
<path d="M8852 15425 c-114 -25 -166 -44 -212 -73 -96 -61 -211 -202 -257
-312 -28 -68 -32 -208 -7 -289 55 -185 269 -335 589 -412 158 -38 355 -33 650
17 218 37 537 153 763 277 108 60 164 81 267 98 133 23 324 -4 437 -62 22 -11
67 -56 111 -111 110 -137 220 -235 421 -377 52 -36 154 -108 227 -160 160
-114 211 -137 404 -190 204 -55 273 -64 445 -58 126 4 159 9 249 36 179 55
251 99 386 235 133 135 179 255 157 412 -17 111 -52 181 -133 262 -88 88 -166
124 -359 167 -261 59 -464 74 -529 41 -85 -44 -95 -169 -19 -224 10 -7 18 -22
18 -33 0 -38 29 -89 62 -109 40 -24 76 -25 180 -4 65 13 87 14 131 4 115 -28
192 -83 214 -155 15 -47 4 -63 -61 -94 -86 -41 -187 -53 -376 -46 -266 10
-326 22 -494 101 -136 64 -327 175 -374 217 -12 12 -43 56 -67 98 -100 173
-221 279 -395 348 -137 54 -211 65 -385 57 -149 -7 -247 -24 -342 -57 -84 -30
-253 -67 -336 -74 -142 -13 -185 -24 -319 -84 -75 -34 -141 -61 -146 -61 -6 0
-61 -20 -123 -45 -165 -67 -318 -98 -439 -91 -80 5 -104 11 -158 38 -128 65
-172 141 -141 240 12 36 22 47 63 67 45 23 52 23 111 13 34 -7 78 -12 96 -12
38 0 93 29 108 58 6 11 27 29 46 41 63 37 81 123 38 187 -62 95 -329 159 -501
119z"/>
<path d="M10275 14210 c-150 -21 -347 -74 -490 -132 -167 -68 -244 -119 -336
-222 -76 -86 -93 -116 -145 -258 l-46 -123 5 -113 c5 -113 6 -114 61 -228 62
-126 125 -199 229 -267 90 -60 345 -192 422 -220 97 -35 351 -83 531 -102 134
-13 168 -13 300 0 290 28 656 123 833 215 97 51 216 164 264 251 59 109 71
158 71 304 -1 113 -4 140 -27 210 -15 45 -40 101 -56 125 -35 53 -114 122
-191 169 -30 18 -73 48 -95 66 -78 62 -305 184 -392 210 -12 3 -32 25 -45 48
-35 62 -58 70 -180 57 -102 -10 -209 -5 -373 19 -97 15 -188 12 -340 -9z m335
-214 c52 -8 174 -32 270 -54 96 -22 200 -46 232 -52 75 -15 195 -74 298 -147
47 -33 117 -79 155 -101 148 -87 190 -157 189 -307 -2 -144 -67 -242 -239
-358 -166 -113 -305 -149 -640 -167 -215 -11 -249 -9 -515 25 -63 9 -198 36
-300 61 -157 39 -202 55 -294 103 -130 67 -186 118 -241 222 -37 70 -40 79
-39 159 0 78 4 91 37 157 42 82 144 205 214 256 111 81 380 174 583 201 137
18 176 18 290 2z"/>
<path d="M10156 11295 c-3 -8 -1 -15 4 -15 6 0 10 7 10 15 0 8 -2 15 -4 15 -2
0 -6 -7 -10 -15z"/>
<path d="M9930 11280 c0 -5 7 -10 15 -10 8 0 15 5 15 10 0 6 -7 10 -15 10 -8
0 -15 -4 -15 -10z"/>
<path d="M10030 11270 c0 -5 5 -10 10 -10 6 0 10 5 10 10 0 6 -4 10 -10 10 -5
0 -10 -4 -10 -10z"/>
<path d="M9875 11250 c-3 -5 -4 -10 -1 -10 2 0 11 -3 20 -6 11 -4 16 -1 16 10
0 18 -25 22 -35 6z"/>
<path d="M10148 11213 c12 -2 30 -2 40 0 9 3 -1 5 -23 4 -22 0 -30 -2 -17 -4z"/>
<path d="M11794 11171 c11 -11 28 -21 40 -21 18 0 18 2 6 14 -8 8 -26 17 -40
21 -25 8 -25 8 -6 -14z"/>
<path d="M12003 11113 c9 -2 23 -2 30 0 6 3 -1 5 -18 5 -16 0 -22 -2 -12 -5z"/>
<path d="M12106 11081 c-3 -5 0 -14 8 -20 10 -8 16 -8 25 3 9 11 8 15 -5 20
-20 8 -22 8 -28 -3z"/>
<path d="M11588 10963 c7 -3 16 -2 19 1 4 3 -2 6 -13 5 -11 0 -14 -3 -6 -6z"/>
<path d="M11535 10950 c-18 -8 -17 -9 8 -9 15 -1 27 4 27 9 0 12 -8 12 -35 0z"/>
<path d="M11470 10930 c0 -5 9 -10 20 -10 11 0 20 5 20 10 0 6 -9 10 -20 10
-11 0 -20 -4 -20 -10z"/>
<path d="M11416 10921 c-4 -5 -2 -12 3 -15 5 -4 12 -2 15 3 4 5 2 12 -3 15 -5
4 -12 2 -15 -3z"/>
<path d="M11366 10879 c-11 -10 -17 -22 -14 -25 6 -5 48 31 48 41 0 10 -16 3
-34 -16z"/>
<path d="M11190 10664 c-13 -32 -13 -44 0 -44 12 0 30 33 30 54 0 25 -20 19
-30 -10z"/>
<path d="M11122 10660 c0 -14 2 -19 5 -12 2 6 2 18 0 25 -3 6 -5 1 -5 -13z"/>
<path d="M11648 10493 c6 -2 18 -2 25 0 6 3 1 5 -13 5 -14 0 -19 -2 -12 -5z"/>
<path d="M11745 10490 c-17 -7 -15 -9 12 -9 17 -1 35 4 38 9 7 12 -22 12 -50
0z"/>
<path d="M11888 10493 c6 -2 18 -2 25 0 6 3 1 5 -13 5 -14 0 -19 -2 -12 -5z"/>
<path d="M11563 10473 c9 -2 23 -2 30 0 6 3 -1 5 -18 5 -16 0 -22 -2 -12 -5z"/>
<path d="M12240 10301 c0 -12 5 -21 10 -21 6 0 10 6 10 14 0 8 -4 18 -10 21
-5 3 -10 -3 -10 -14z"/>
<path d="M12260 10240 c0 -11 5 -20 10 -20 6 0 10 9 10 20 0 11 -4 20 -10 20
-5 0 -10 -9 -10 -20z"/>
<path d="M11386 10222 c23 -22 61 -18 43 4 -6 8 -23 14 -37 14 -25 0 -25 0 -6
-18z"/>
<path d="M13276 10084 c-3 -9 -6 -18 -6 -20 0 -9 46 -2 69 10 l23 13 -32 7
c-45 8 -47 8 -54 -10z"/>
<path d="M8668 10024 c22 -15 42 -12 42 7 0 5 -15 9 -32 9 -32 0 -32 0 -10
-16z"/>
<path d="M13198 10023 c7 -3 16 -2 19 1 4 3 -2 6 -13 5 -11 0 -14 -3 -6 -6z"/>
<path d="M8386 9991 c-12 -19 -237 -101 -276 -101 -38 0 -40 -1 -34 -25 4 -15
2 -25 -5 -25 -6 0 -11 7 -11 15 0 22 -53 19 -100 -5 -22 -11 -40 -27 -40 -34
0 -7 -7 -19 -15 -26 -8 -7 -15 -19 -15 -27 0 -10 13 -5 43 15 74 53 120 50 63
-3 -32 -29 -22 -40 13 -15 27 18 194 87 239 97 13 3 33 19 45 35 12 17 48 43
79 59 66 33 80 49 44 49 -14 0 -27 -4 -30 -9z"/>
<path d="M13125 9990 c-3 -5 -1 -10 4 -10 6 0 11 5 11 10 0 6 -2 10 -4 10 -3
0 -8 -4 -11 -10z"/>
<path d="M9121 9894 c0 -11 3 -14 6 -6 3 7 2 16 -1 19 -3 4 -6 -2 -5 -13z"/>
<path d="M10093 9900 c-13 -5 -23 -12 -23 -15 0 -11 57 -4 76 10 18 14 18 14
-6 14 -14 0 -35 -4 -47 -9z"/>
<path d="M8427 9888 c-21 -6 -36 -15 -34 -22 6 -15 34 -11 87 13 42 18 43 20
15 19 -16 0 -47 -5 -68 -10z"/>
<path d="M9227 9884 c-11 -12 3 -24 28 -24 13 0 26 4 29 9 10 15 -43 29 -57
15z"/>
<path d="M9990 9870 c0 -5 4 -10 9 -10 6 0 13 5 16 10 3 6 -1 10 -9 10 -9 0
-16 -4 -16 -10z"/>
<path d="M9390 9860 c0 -5 5 -10 10 -10 6 0 10 5 10 10 0 6 -4 10 -10 10 -5 0
-10 -4 -10 -10z"/>
<path d="M9948 9853 c6 -2 18 -2 25 0 6 3 1 5 -13 5 -14 0 -19 -2 -12 -5z"/>
<path d="M8550 9770 c0 -5 5 -10 10 -10 6 0 10 5 10 10 0 6 -4 10 -10 10 -5 0
-10 -4 -10 -10z"/>
<path d="M9632 9730 c0 -14 2 -19 5 -12 2 6 2 18 0 25 -3 6 -5 1 -5 -13z"/>
<path d="M8479 9721 c-14 -12 -18 -20 -11 -21 15 0 47 28 40 36 -3 2 -16 -4
-29 -15z"/>
<path d="M8420 9680 c-19 -15 -21 -20 -9 -20 16 0 46 27 38 35 -2 2 -15 -5
-29 -15z"/>
<path d="M10335 9680 c-3 -5 3 -10 14 -10 12 0 21 5 21 10 0 6 -6 10 -14 10
-8 0 -18 -4 -21 -10z"/>
<path d="M10225 9660 c3 -5 20 -10 36 -10 18 0 28 4 24 10 -3 6 -20 10 -36 10
-18 0 -28 -4 -24 -10z"/>
<path d="M8368 9643 c7 -3 16 -2 19 1 4 3 -2 6 -13 5 -11 0 -14 -3 -6 -6z"/>
<path d="M7630 9624 c0 -8 5 -12 10 -9 6 3 10 10 10 16 0 5 -4 9 -10 9 -5 0
-10 -7 -10 -16z"/>
<path d="M9526 9555 c4 -8 8 -15 10 -15 2 0 4 7 4 15 0 8 -4 15 -10 15 -5 0
-7 -7 -4 -15z"/>
<path d="M11675 9551 c17 -4 40 -13 52 -19 27 -15 56 -16 48 -2 -3 6 -17 10
-31 10 -13 0 -24 5 -24 10 0 6 -17 10 -37 9 -37 -1 -38 -1 -8 -8z"/>
<path d="M9281 9534 c0 -11 3 -14 6 -6 3 7 2 16 -1 19 -3 4 -6 -2 -5 -13z"/>
<path d="M7535 9529 c-4 -6 -5 -13 -2 -16 7 -7 27 6 27 18 0 12 -17 12 -25 -2z"/>
<path d="M8438 9524 c-32 -14 -36 -19 -32 -42 4 -22 0 -30 -25 -45 -17 -10
-31 -22 -31 -28 0 -33 126 28 136 66 3 14 12 29 20 36 37 31 -6 39 -68 13z"/>
<path d="M9200 9516 c0 -8 7 -16 15 -20 9 -3 15 0 15 8 0 8 -7 16 -15 20 -9 3
-15 0 -15 -8z"/>
<path d="M8090 9473 c-53 -39 -71 -60 -97 -113 -28 -58 -45 -114 -25 -84 4 6
17 14 29 18 37 12 103 77 103 101 0 12 14 41 31 64 16 23 29 47 27 52 -2 6
-33 -11 -68 -38z"/>
<path d="M11810 9490 c30 -23 40 -25 40 -6 0 7 -10 16 -22 20 -39 10 -44 6
-18 -14z"/>
<path d="M11658 9483 c6 -2 18 -2 25 0 6 3 1 5 -13 5 -14 0 -19 -2 -12 -5z"/>
<path d="M11574 9457 c18 -16 27 -31 23 -41 -8 -19 23 -29 79 -24 31 2 39 7
39 23 0 14 8 21 28 25 55 10 21 25 -58 26 -44 0 -93 4 -110 8 l-30 7 29 -24z"/>
<path d="M7858 9449 c-14 -6 -29 -17 -32 -25 -6 -16 -2 -17 22 -5 9 5 33 16
52 25 31 14 32 15 10 15 -14 0 -37 -5 -52 -10z"/>
<path d="M9226 9431 c-10 -10 -34 -22 -54 -26 -20 -4 -48 -14 -62 -23 -14 -10
-47 -28 -75 -41 -81 -40 -103 -64 -66 -74 13 -3 23 3 32 20 11 21 18 23 51 18
29 -5 38 -3 38 7 0 10 14 14 52 13 48 0 52 -2 59 -29 6 -20 4 -35 -6 -50 -8
-11 -15 -28 -15 -38 0 -9 -9 -22 -19 -28 -11 -5 -23 -20 -27 -32 -4 -13 -10
-25 -13 -28 -3 -3 -28 -38 -55 -78 -48 -71 -101 -123 -141 -136 -25 -8 -75
-52 -75 -66 0 -18 29 -10 100 31 32 19 42 21 51 12 8 -8 38 -197 39 -245 0
-15 -9 -16 -60 -13 -40 2 -73 -2 -98 -12 -20 -8 -61 -15 -89 -14 -54 1 -65 -7
-38 -29 17 -14 19 -38 6 -59 -7 -11 -14 -9 -34 14 -22 26 -30 29 -93 29 -82 0
-182 -32 -232 -75 -38 -34 -48 -36 -55 -10 -3 11 -16 20 -36 23 -28 4 -43 -5
-23 -14 4 -1 17 -16 30 -32 l22 -29 -20 -32 c-11 -18 -20 -43 -20 -56 0 -13
-4 -30 -9 -38 -7 -11 -10 -9 -16 9 -5 16 -10 19 -18 11 -18 -18 -24 -13 -41
42 -9 28 -25 63 -36 77 -17 22 -19 23 -26 7 -3 -9 -1 -30 5 -45 13 -33 8 -159
-7 -174 -13 -13 -19 -2 -24 42 -4 35 -40 38 -66 6 -11 -15 -25 -26 -31 -26 -6
0 -11 -7 -11 -14 0 -8 -11 -27 -25 -42 l-25 -27 0 36 c0 26 8 44 33 69 71 73
107 121 107 139 0 38 -33 16 -80 -53 -14 -22 -40 -43 -62 -52 -21 -8 -41 -23
-44 -33 -5 -15 -83 -183 -89 -191 -1 -1 -10 0 -19 4 -20 8 -21 28 -1 44 8 7
15 18 15 26 0 18 69 163 89 186 8 10 24 18 34 18 24 0 53 66 37 85 -8 9 -8 15
0 20 6 3 8 11 4 16 -8 14 -24 0 -24 -22 0 -11 -7 -35 -15 -55 -12 -30 -17 -33
-33 -25 -18 9 -52 94 -52 130 -1 14 -2 13 -11 -2 -13 -22 -13 -109 0 -153 9
-31 4 -84 -8 -84 -3 0 -18 -21 -31 -47 -14 -27 -31 -55 -38 -64 -7 -9 -19 -46
-26 -83 -17 -79 -25 -90 -85 -118 -34 -15 -49 -18 -62 -10 -13 9 -18 7 -21 -6
-6 -21 -112 -76 -133 -68 -9 3 -15 18 -15 36 0 18 -4 29 -10 25 -13 -8 -13
-68 1 -99 6 -13 21 -27 33 -30 13 -3 39 -17 60 -31 20 -14 49 -25 64 -25 39
-1 66 -42 67 -103 1 -40 6 -53 26 -68 13 -11 30 -24 37 -29 7 -7 12 -7 12 -1
0 24 -23 117 -32 128 -5 6 -8 27 -6 45 3 29 6 33 31 30 15 -2 37 4 49 13 13 8
26 15 30 15 17 0 36 -59 43 -130 3 -41 11 -91 15 -110 15 -55 15 -153 2 -186
-7 -16 -23 -34 -35 -39 -28 -13 -26 -63 6 -114 17 -29 22 -54 24 -121 2 -47 4
-96 5 -110 3 -22 -2 -25 -30 -28 -38 -4 -40 1 -73 135 -24 102 -57 183 -73
183 -6 0 -18 -5 -26 -10 -11 -7 -20 -2 -36 17 -13 17 -31 26 -50 27 -28 1 -30
3 -57 111 -36 143 -48 197 -43 202 6 7 56 -28 56 -39 0 -5 9 -28 20 -50 11
-23 20 -45 20 -50 0 -5 16 -31 35 -58 19 -27 35 -52 35 -55 0 -10 69 -75 79
-75 11 0 -30 95 -48 113 -6 6 -11 20 -11 31 0 12 -18 41 -40 66 -23 25 -48 61
-56 80 -9 19 -19 42 -24 50 -4 9 -11 30 -15 48 -9 42 -31 41 -49 -3 -8 -19
-22 -35 -30 -35 -21 0 -31 -44 -18 -78 34 -94 40 -219 12 -275 -10 -21 -11
-30 -2 -39 7 -7 12 -15 12 -20 0 -11 -33 3 -46 20 -9 13 -12 13 -17 -2 -4 -9
-3 -16 2 -16 5 0 11 -9 14 -20 3 -12 14 -20 26 -20 27 0 27 -16 1 -23 -11 -3
-20 -1 -20 4 0 5 -4 9 -10 9 -5 0 -19 9 -30 20 -35 35 -41 22 -12 -30 15 -27
33 -50 40 -50 6 0 12 -8 12 -18 0 -20 48 -67 58 -57 3 3 1 15 -6 25 -17 27
-15 60 3 60 9 0 15 -9 15 -25 0 -25 14 -33 25 -15 8 13 67 -56 81 -96 6 -18 8
-38 3 -45 -12 -20 1 -39 28 -39 22 0 25 4 21 25 -5 22 -2 24 21 19 14 -3 42
-12 61 -19 51 -21 143 -35 222 -35 l68 0 0 50 0 50 96 45 c106 49 139 55 149
26 9 -29 -4 -49 -35 -56 -30 -7 -143 -75 -154 -94 -5 -7 5 -11 28 -11 25 0 36
4 36 15 0 8 5 15 11 15 6 0 8 -8 5 -17 -7 -22 13 -55 21 -35 2 6 16 12 29 12
13 0 24 4 24 8 0 4 20 14 45 21 43 13 57 25 35 33 -5 2 26 3 69 3 80 1 116 11
158 48 l21 19 -21 24 c-11 13 -25 24 -30 24 -6 0 -26 12 -44 26 -27 21 -33 31
-29 49 4 14 1 25 -7 28 -6 2 -8 8 -4 13 4 4 17 3 27 -4 26 -16 62 -15 96 3 16
8 37 15 47 15 10 0 35 10 56 22 36 20 44 21 102 11 50 -8 67 -8 79 2 8 7 25
16 37 19 34 11 83 64 105 115 17 39 19 59 13 131 -6 76 -9 88 -35 113 -27 27
-29 33 -32 129 -2 65 2 117 11 147 7 25 15 52 17 59 6 20 27 14 21 -7 -9 -37
9 -44 37 -16 22 22 28 38 31 84 4 70 -2 81 -26 44 l-19 -28 0 31 c0 19 6 34
15 38 8 3 15 17 15 31 0 18 5 25 20 25 17 0 20 -7 20 -44 0 -25 5 -48 10 -51
6 -3 10 -24 10 -46 0 -51 36 -115 104 -181 67 -66 98 -81 154 -75 32 3 53 14
77 37 18 18 38 30 43 26 6 -3 20 37 34 97 21 87 24 112 16 167 -5 36 -9 74 -9
84 0 32 -38 105 -64 122 -14 9 -25 25 -25 35 0 14 -7 19 -26 19 l-26 0 26 -31
c16 -19 26 -43 26 -63 0 -17 5 -37 11 -43 6 -6 9 -21 7 -34 -3 -21 -7 -17 -28
24 -27 54 -86 107 -119 107 -18 0 -20 -3 -11 -19 5 -11 10 -24 10 -30 0 -18
-30 -12 -37 7 -4 9 -13 22 -21 27 -23 18 5 65 38 65 35 0 42 8 27 31 -19 31 5
44 34 18 42 -37 79 -47 139 -39 95 14 87 24 96 -107 17 -251 5 -464 -27 -499
-14 -15 -18 -29 -13 -50 5 -24 -1 -39 -30 -77 -25 -33 -36 -58 -36 -81 0 -36
-16 -57 -25 -33 -3 7 -2 24 3 38 5 13 7 45 4 70 -3 40 -7 46 -23 42 -23 -6
-26 12 -3 21 8 3 12 10 9 16 -9 15 -55 12 -61 -4 -4 -11 -13 -12 -37 -5 -20 5
-35 5 -41 -1 -14 -14 -26 -12 -26 5 0 8 -4 15 -10 15 -5 0 -10 -8 -10 -17 0
-10 -5 -25 -10 -33 -9 -13 -13 -12 -26 5 -11 14 -18 16 -21 8 -9 -23 -50 -14
-76 17 -20 23 -34 30 -61 30 -20 0 -36 5 -36 10 0 6 -5 10 -10 10 -6 0 1 -18
15 -40 14 -22 25 -46 25 -55 0 -18 4 -19 30 -3 15 10 22 10 32 0 10 -10 8 -17
-9 -34 l-22 -21 26 -51 c19 -38 26 -67 27 -116 1 -57 -4 -75 -41 -150 -47 -95
-130 -187 -158 -177 -23 10 -28 -14 -10 -56 8 -20 15 -48 15 -62 0 -18 5 -25
20 -25 14 0 20 7 20 23 0 28 26 67 45 67 14 0 14 -13 0 -83 -4 -20 23 -36 34
-19 3 6 18 25 33 44 15 18 37 45 48 61 12 15 25 27 30 27 5 0 10 -34 12 -75 3
-66 1 -75 -15 -75 -15 0 -47 -46 -36 -53 2 -1 18 -12 34 -23 20 -14 47 -22 77
-22 l47 -1 -11 29 c-5 17 -14 32 -19 35 -5 3 -3 15 4 26 10 16 9 25 -6 51 -11
20 -14 35 -8 41 5 5 7 16 4 24 -3 7 1 33 10 56 8 23 18 63 22 88 4 35 11 48
25 52 24 6 36 -9 16 -20 -8 -5 -16 -36 -20 -84 -7 -67 -5 -78 13 -100 20 -24
20 -24 21 -2 0 12 -4 25 -10 28 -13 8 -13 82 1 91 18 11 34 -14 34 -55 0 -32
5 -42 30 -60 17 -11 39 -21 49 -21 26 0 10 -18 -24 -25 -37 -8 -38 -27 -5 -53
14 -11 25 -25 25 -31 0 -14 57 -15 65 -1 5 8 12 7 22 -2 14 -11 13 -13 -7 -18
-27 -6 -39 -30 -16 -30 9 0 19 -7 22 -15 4 -8 15 -15 27 -15 11 0 31 -10 44
-21 18 -18 25 -20 37 -10 10 9 20 9 34 2 10 -5 32 -9 48 -9 17 1 43 -7 58 -17
24 -16 27 -23 22 -54 -3 -24 -2 -31 4 -21 5 8 12 42 15 75 7 72 -12 170 -49
251 -14 31 -26 64 -26 72 0 9 -12 28 -26 43 -19 20 -24 33 -18 46 4 10 13 38
18 62 14 56 37 72 65 47 29 -27 29 -111 1 -141 l-21 -22 31 -33 c16 -17 30
-38 30 -45 0 -7 10 -27 23 -46 12 -19 24 -47 25 -63 1 -16 13 -48 27 -71 13
-23 22 -45 18 -48 -3 -4 1 -23 10 -44 8 -21 13 -52 11 -68 -4 -30 -4 -30 7 -5
6 14 15 36 20 49 9 21 11 22 27 9 43 -38 133 -64 164 -47 11 6 21 5 30 -4 25
-22 57 -37 82 -37 14 0 28 -4 31 -10 3 -5 29 -10 56 -10 28 0 59 -5 70 -11 14
-7 30 -7 53 1 33 11 34 11 20 39 -8 16 -22 32 -30 35 -15 6 -15 8 -1 30 15 22
14 25 -6 43 -38 34 -102 53 -153 46 -41 -5 -47 -4 -41 10 5 13 1 17 -16 17
-13 0 -28 5 -34 11 -13 13 -33 4 -33 -17 0 -8 -8 -14 -18 -14 -13 0 -21 12
-28 42 -8 39 -13 43 -53 55 -66 19 -69 34 -11 60 28 12 50 27 50 33 0 18 -31
24 -62 12 -41 -15 -67 -4 -32 14 39 21 109 18 131 -5 10 -10 29 -22 43 -26 23
-7 24 -7 10 11 -8 10 -26 29 -40 41 -32 28 -30 26 -96 98 -72 77 -84 91 -124
145 -19 25 -40 49 -47 53 -7 4 -13 17 -13 28 0 11 -7 22 -15 25 -8 4 -15 12
-15 20 0 8 -14 38 -30 67 -59 101 -70 123 -87 181 -8 28 -18 56 -22 61 -9 12
-66 191 -80 250 -27 116 -31 138 -31 168 0 18 -5 48 -10 67 -7 24 -7 77 0 165
11 134 24 201 47 245 7 14 13 39 13 56 0 19 6 34 15 38 8 3 15 17 15 32 0 25
-1 26 -17 12 -29 -25 -47 -26 -59 -5 -11 20 -12 20 -23 -1 -6 -12 -16 -22 -21
-22 -13 0 -13 37 0 45 16 10 -4 30 -57 60 -51 28 -83 21 -83 -19 0 -13 -7 -29
-15 -36 -16 -13 -54 -5 -56 13 -1 7 -2 17 -4 22 -1 6 -3 16 -3 23 -3 17 -29
15 -35 -2 -9 -23 -67 -18 -67 6 0 10 4 18 9 18 15 0 20 41 8 61 -8 13 -8 24 2
42 7 14 10 34 6 47 -5 15 -1 28 15 45 27 29 22 59 -16 105 -35 41 -22 56 35
39 66 -20 68 9 3 49 -44 27 -75 75 -60 90 6 6 11 22 11 35 0 16 6 27 18 30 13
3 17 11 13 21 -8 21 -17 20 -38 -3z m8 -307 c10 -26 7 -33 -20 -50 -20 -14
-27 -15 -37 -4 -9 10 -9 14 1 17 7 3 17 16 22 29 11 28 25 31 34 8z m-56 -356
c16 -21 18 -50 3 -98 -20 -69 -30 -90 -40 -90 -21 0 -31 42 -37 148 -6 105 -5
111 17 133 l23 23 11 -52 c7 -28 17 -57 23 -64z m408 -77 c14 -18 9 -31 -11
-31 -17 0 -84 42 -85 53 0 15 84 -5 96 -22z m-549 -108 c4 -11 -5 -26 -27 -46
-31 -28 -37 -29 -97 -24 -73 6 -114 30 -90 54 11 12 21 10 58 -11 51 -30 99
-34 99 -10 0 44 44 73 57 37z m309 -34 c3 -5 14 -9 25 -9 34 0 20 -15 -40 -40
-54 -22 -60 -28 -76 -72 -17 -47 -38 -68 -69 -68 -20 0 -21 24 -1 40 8 7 15
24 15 39 0 16 13 38 38 62 20 20 42 43 49 52 12 15 48 13 59 -4z m-654 -56
c20 -17 23 -38 9 -48 -5 -3 -26 4 -46 16 -40 24 -89 22 -141 -6 -16 -8 -39
-15 -52 -15 -19 0 -21 2 -10 19 6 11 21 22 32 24 12 3 39 13 61 21 47 19 120
14 147 -11z m348 -3 c0 -5 -4 -10 -10 -10 -5 0 -10 5 -10 10 0 6 5 10 10 10 6
0 10 -4 10 -10z m90 -69 c0 -14 -5 -18 -20 -14 -13 4 -22 -1 -27 -13 -12 -34
-93 -94 -93 -69 0 13 24 55 32 55 5 0 18 9 30 20 12 11 30 20 39 20 10 0 21 5
24 10 9 15 15 12 15 -9z m-517 3 c11 -11 -3 -24 -18 -18 -8 4 -12 10 -9 15 6
11 18 12 27 3z m337 -19 c11 -13 9 -19 -8 -38 -11 -12 -25 -34 -31 -50 -6 -15
-23 -33 -38 -40 -16 -6 -34 -18 -42 -25 -17 -16 -36 -10 -35 12 2 22 -4 20
-27 -6 l-18 -23 -1 28 c0 17 5 27 15 27 8 0 15 4 15 9 0 5 11 34 25 65 l25 56
54 0 c36 0 58 -5 66 -15z m-446 -31 c65 -16 86 -28 87 -53 0 -9 7 -2 15 16 13
30 50 60 60 50 5 -5 -41 -190 -51 -207 -9 -14 -25 -2 -36 27 -10 26 -29 23
-29 -5 0 -9 -9 -44 -19 -77 -19 -59 -19 -60 -57 -61 -22 -1 -47 -5 -56 -9 -10
-4 -24 1 -37 14 -28 28 -27 31 14 31 35 0 35 0 34 43 -1 23 -4 52 -8 65 l-6
24 -22 -31 c-14 -18 -19 -32 -13 -36 13 -8 -4 -41 -28 -54 -15 -8 -17 -3 -19
37 -1 30 3 50 13 56 7 6 15 29 17 52 2 23 7 46 11 52 4 6 4 23 0 37 -14 58 -2
61 130 29z m202 -180 c-6 -16 -26 -19 -26 -5 0 5 5 22 12 38 11 27 12 27 16 5
2 -13 1 -30 -2 -38z m326 22 c9 -12 17 -24 18 -28 0 -11 -24 -10 -36 2 -19 19
-73 30 -86 17 -16 -15 -65 -47 -73 -47 -15 0 -1 24 33 54 34 32 41 34 82 29
27 -4 51 -14 62 -27z m142 7 c-4 -16 -13 -44 -21 -63 -13 -31 -15 -33 -25 -16
-8 14 -5 25 11 47 12 15 21 35 21 44 0 8 5 15 10 15 6 0 8 -11 4 -27z m136 7
c0 -5 -2 -10 -4 -10 -3 0 -8 5 -11 10 -3 6 -1 10 4 10 6 0 11 -4 11 -10z
m-550 -10 c0 -5 -7 -10 -16 -10 -8 0 -12 5 -9 10 3 6 10 10 16 10 5 0 9 -4 9
-10z m499 -48 c0 -9 1 -26 3 -37 2 -13 -3 -20 -12 -20 -16 0 -26 45 -16 71 7
19 25 9 25 -14z m-249 -1 c0 -6 -4 -13 -10 -16 -5 -3 -10 1 -10 9 0 9 5 16 10
16 6 0 10 -4 10 -9z m316 -117 c-3 -8 -10 -14 -16 -14 -14 0 -13 63 3 97 12
27 12 27 15 -21 2 -27 1 -55 -2 -62z m-508 59 c-19 -21 -24 -22 -26 -8 -4 18
27 47 41 38 5 -3 -2 -16 -15 -30z m-858 -29 c0 -8 -7 -14 -15 -14 -15 0 -21
21 -9 33 10 9 24 -2 24 -19z m265 17 c3 -6 -4 -15 -15 -21 -20 -11 -21 -10
-10 9 12 23 16 25 25 12z m508 -47 c9 -3 12 -14 9 -30 -5 -29 -10 -30 -28 -6
-25 32 -16 50 19 36z m97 -10 c0 -10 -28 -34 -39 -34 -6 0 -11 5 -11 10 0 6 7
10 15 10 8 0 15 5 15 10 0 6 5 10 10 10 6 0 10 -3 10 -6z m-605 -12 c6 -4 21
-47 35 -97 26 -96 29 -178 6 -204 -7 -9 -16 -25 -20 -35 -13 -38 -21 -2 -18
84 2 48 0 96 -6 106 -13 25 -26 154 -15 154 4 0 13 -4 18 -8z m212 -28 c-3 -3
-12 -4 -19 -1 -8 3 -5 6 6 6 11 1 17 -2 13 -5z m531 -14 c-11 -18 -28 -27 -28
-16 0 16 14 36 26 36 12 0 12 -4 2 -20z m-442 -1 c10 -17 -13 -36 -27 -22 -12
12 -4 33 11 33 5 0 12 -5 16 -11z m317 4 c-7 -2 -19 -2 -25 0 -7 3 -2 5 12 5
14 0 19 -2 13 -5z m-496 -65 c-3 -8 -6 -5 -6 6 -1 11 2 17 5 13 3 -3 4 -12 1
-19z m-587 2 c0 -5 -6 -10 -14 -10 -8 0 -18 5 -21 10 -3 6 3 10 14 10 12 0 21
-4 21 -10z m1150 -8 c0 -13 -12 -22 -22 -16 -10 6 -1 24 13 24 5 0 9 -4 9 -8z
m-763 -34 c-3 -8 -6 -5 -6 6 -1 11 2 17 5 13 3 -3 4 -12 1 -19z m20 -30 c-3
-8 -6 -5 -6 6 -1 11 2 17 5 13 3 -3 4 -12 1 -19z m253 11 c0 -6 -8 -22 -19
-35 l-19 -24 -6 23 c-10 38 -7 47 19 47 14 0 25 -5 25 -11z m-743 -145 c-3 -3
-12 -4 -19 -1 -8 3 -5 6 6 6 11 1 17 -2 13 -5z m243 -8 c0 -8 7 -16 15 -20 8
-3 15 -12 15 -20 0 -12 7 -14 28 -10 20 4 33 0 46 -15 22 -24 15 -37 -23 -46
-16 -3 -36 -14 -44 -23 -14 -16 -13 -21 19 -65 25 -34 41 -47 59 -47 36 0 31
-24 -9 -49 -37 -23 -66 -19 -66 9 0 10 -7 23 -14 30 -17 13 -36 65 -42 113 -2
17 -6 53 -10 79 -4 26 -4 54 -1 63 8 19 27 20 27 1z m1380 -56 c23 -12 16 -40
-10 -40 -16 0 -30 18 -30 41 0 12 17 11 40 -1z m-449 -22 c47 -16 78 -40 79
-60 0 -9 7 -21 16 -26 11 -6 13 -11 5 -16 -11 -7 -81 40 -81 55 0 5 -6 9 -13
9 -7 0 -28 11 -47 25 -28 21 -30 25 -13 25 11 0 35 -5 54 -12z m319 -18 c0 -5
-7 -10 -15 -10 -8 0 -15 5 -15 10 0 6 7 10 15 10 8 0 15 -4 15 -10z m75 -10
c3 -5 -1 -10 -9 -10 -9 0 -16 5 -16 10 0 6 4 10 9 10 6 0 13 -4 16 -10z m33
-75 c2 -2 -19 -5 -47 -6 -36 -3 -51 0 -51 8 0 9 13 11 48 6 26 -3 48 -7 50 -8z
m-1021 -72 c10 -31 9 -42 -3 -60 -24 -38 -43 -19 -41 43 1 66 25 75 44 17z
m950 11 c-3 -3 -12 -4 -19 -1 -8 3 -5 6 6 6 11 1 17 -2 13 -5z m403 -15 c0 -5
-4 -9 -10 -9 -5 0 -10 7 -10 16 0 8 5 12 10 9 6 -3 10 -10 10 -16z m26 -31
c-9 -5 -16 -18 -16 -28 0 -14 -7 -20 -22 -20 -20 1 -21 2 -8 13 8 7 24 25 34
42 13 20 21 25 24 16 3 -8 -3 -18 -12 -23z m-1626 -108 c0 -5 -2 -10 -4 -10
-3 0 -8 5 -11 10 -3 6 -1 10 4 10 6 0 11 -4 11 -10z m564 -35 c21 -16 21 -17
-10 -33 -27 -14 -147 -27 -171 -18 -28 11 2 24 74 32 38 4 64 11 67 20 7 18
16 17 40 -1z m626 -9 c0 -18 -70 -77 -82 -70 -17 11 -7 43 20 63 32 24 62 27
62 7z m-1725 -86 c3 -5 -1 -10 -10 -10 -9 0 -13 5 -10 10 3 6 8 10 10 10 2 0
7 -4 10 -10z m1871 -47 c-11 -11 -19 6 -11 24 8 17 8 17 12 0 3 -10 2 -21 -1
-24z m-219 -15 c-3 -7 -5 -2 -5 12 0 14 2 19 5 13 2 -7 2 -19 0 -25z m480 2
c10 -27 10 -29 -7 -20 -21 11 -34 50 -16 50 6 0 17 -13 23 -30z m-1917 -31 c0
-31 -9 -36 -28 -17 -13 13 -16 50 -5 61 12 13 33 -15 33 -44z m1397 -15 c-3
-3 -12 -4 -19 -1 -8 3 -5 6 6 6 11 1 17 -2 13 -5z m-67 -13 c0 -15 -16 -22
-34 -15 -25 9 -19 24 9 24 14 0 25 -4 25 -9z m564 -23 c5 -9 6 -21 2 -25 -5
-4 -11 -2 -13 5 -3 7 -12 20 -21 28 -14 15 -14 16 3 13 10 -2 23 -12 29 -21z
m-1229 -8 c3 -5 1 -10 -4 -10 -6 0 -11 5 -11 10 0 6 2 10 4 10 3 0 8 -4 11
-10z m1235 -39 c0 -6 -4 -13 -10 -16 -5 -3 -10 1 -10 9 0 9 5 16 10 16 6 0 10
-4 10 -9z m386 -42 c3 -5 1 -9 -5 -9 -17 0 -41 12 -41 20 0 10 38 1 46 -11z
m-83 4 c-7 -2 -19 -2 -25 0 -7 3 -2 5 12 5 14 0 19 -2 13 -5z m-1623 -7 c0 -3
-4 -8 -10 -11 -5 -3 -10 -1 -10 4 0 6 5 11 10 11 6 0 10 -2 10 -4z m925 -66
c3 -5 -1 -10 -9 -10 -9 0 -16 5 -16 10 0 6 4 10 9 10 6 0 13 -4 16 -10z m346
-53 c-1 -12 -15 -9 -19 4 -3 6 1 10 8 8 6 -3 11 -8 11 -12z m543 -59 c-15 -7
-28 -7 -40 1 -16 9 -12 10 21 10 35 0 37 -2 19 -11z"/>
<path d="M7345 9420 c-16 -10 -38 -19 -49 -19 -18 -1 -96 -39 -106 -53 -3 -3
-46 -28 -95 -54 -50 -25 -98 -55 -108 -65 -10 -11 -24 -19 -33 -19 -8 0 -17
-7 -21 -16 -3 -8 -17 -20 -30 -25 -15 -5 -31 -25 -41 -50 -16 -38 -19 -40 -51
-35 -37 6 -91 -2 -91 -14 0 -12 194 -23 198 -11 2 6 12 11 21 11 10 0 41 9 69
21 36 15 49 25 45 36 -3 8 4 23 16 34 11 11 21 23 21 27 0 4 19 18 41 32 29
18 39 30 35 43 -5 19 -1 22 94 52 30 10 60 22 66 26 5 5 20 6 32 2 20 -5 22
-2 20 25 -1 19 5 39 16 51 19 21 19 21 0 20 -10 0 -32 -9 -49 -19z m-75 -64
c0 -11 -19 -15 -25 -6 -3 5 1 10 9 10 9 0 16 -2 16 -4z m-290 -215 c15 -30 13
-32 -20 -13 -34 20 -39 32 -10 32 10 0 24 -9 30 -19z m-22 -31 c24 0 11 -15
-23 -26 -38 -12 -49 -6 -39 21 5 11 14 15 28 11 11 -3 27 -6 34 -6z"/>
<path d="M7550 9420 c-12 -8 -9 -10 13 -10 16 0 26 4 22 10 -8 12 -16 12 -35
0z"/>
<path d="M11320 9411 c0 -14 28 -21 83 -20 36 0 46 3 32 8 -32 13 -115 21
-115 12z"/>
<path d="M11460 9406 c0 -17 58 -27 83 -14 28 14 10 28 -39 28 -31 0 -44 -4
-44 -14z"/>
<path d="M11861 9404 c0 -11 3 -14 6 -6 3 7 2 16 -1 19 -3 4 -6 -2 -5 -13z"/>
<path d="M7500 9371 c0 -12 6 -21 16 -21 9 0 14 7 12 17 -5 25 -28 28 -28 4z"/>
<path d="M11100 9380 c0 -6 17 -10 37 -10 43 0 41 5 -4 13 -19 4 -33 2 -33 -3z"/>
<path d="M7628 9363 c7 -3 16 -2 19 1 4 3 -2 6 -13 5 -11 0 -14 -3 -6 -6z"/>
<path d="M8620 9355 c-8 -9 -23 -21 -35 -25 l-20 -9 21 0 c26 -1 58 22 53 38
-4 10 -9 9 -19 -4z"/>
<path d="M9290 9354 c0 -8 5 -12 10 -9 6 4 8 11 5 16 -9 14 -15 11 -15 -7z"/>
<path d="M7465 9330 c3 -5 8 -10 11 -10 2 0 4 5 4 10 0 6 -5 10 -11 10 -5 0
-7 -4 -4 -10z"/>
<path d="M10985 9310 c42 -11 97 -31 115 -41 8 -5 26 -14 40 -19 14 -6 33 -15
42 -20 10 -6 23 -10 30 -10 7 0 24 -6 38 -13 34 -18 70 -27 70 -17 0 10 -118
67 -158 75 -18 4 -45 13 -60 21 -15 8 -37 14 -49 14 -12 0 -25 5 -28 10 -3 6
-21 10 -38 9 l-32 -1 30 -8z"/>
<path d="M11699 9306 c-3 -3 -39 -9 -80 -11 -107 -8 -292 -36 -304 -46 -5 -5
18 -8 54 -7 44 2 65 -1 68 -9 3 -9 -6 -13 -26 -13 -17 0 -31 -5 -31 -11 0 -7
21 -9 63 -6 121 9 282 14 300 9 9 -2 17 -12 17 -22 0 -21 44 -34 83 -25 26 7
67 -9 67 -25 0 -5 -19 -10 -42 -12 l-43 -4 35 -17 c34 -18 33 -18 -130 -12
-155 5 -163 4 -135 -11 18 -9 43 -14 62 -11 40 7 100 -9 111 -29 4 -8 23 -16
41 -19 65 -8 95 -18 141 -46 26 -16 53 -29 59 -29 7 0 18 15 26 34 20 46 6 90
-53 166 -26 34 -59 78 -73 97 -14 19 -32 39 -40 44 -19 10 -162 23 -170 15z"/>
<path d="M12170 9300 c0 -5 7 -10 15 -10 8 0 15 5 15 10 0 6 -7 10 -15 10 -8
0 -15 -4 -15 -10z"/>
<path d="M8927 9264 c-14 -14 -7 -35 11 -32 9 2 17 10 17 17 0 16 -18 25 -28
15z"/>
<path d="M8836 9185 c-4 -22 -11 -47 -15 -55 -4 -8 -5 -24 -1 -35 7 -18 8 -16
14 10 4 17 10 41 15 55 4 14 4 35 1 45 -6 16 -9 11 -14 -20z"/>
<path d="M9085 9209 c-4 -6 -5 -13 -2 -16 7 -7 27 6 27 18 0 12 -17 12 -25 -2z"/>
<path d="M6505 9140 c-3 -5 1 -10 9 -10 9 0 16 5 16 10 0 6 -4 10 -9 10 -6 0
-13 -4 -16 -10z"/>
<path d="M6445 9111 c-10 -17 12 -21 25 -6 10 12 10 15 -3 15 -9 0 -18 -4 -22
-9z"/>
<path d="M6234 9091 c8 -13 70 -23 92 -14 16 6 14 8 -11 14 -45 10 -87 10 -81
0z"/>
<path d="M6378 9093 c-10 -2 -18 -9 -18 -14 0 -15 46 -10 60 6 10 12 9 15 -6
14 -11 -1 -27 -3 -36 -6z"/>
<path d="M11492 9093 c-8 -3 -5 -11 12 -24 34 -27 51 -24 29 6 -19 26 -21 26
-41 18z"/>
<path d="M7665 9080 c-3 -5 -1 -10 4 -10 6 0 11 5 11 10 0 6 -2 10 -4 10 -3 0
-8 -4 -11 -10z"/>
<path d="M7494 9048 c-3 -4 11 -8 30 -8 20 0 36 2 36 4 0 8 -61 12 -66 4z"/>
<path d="M9761 9044 c0 -11 3 -14 6 -6 3 7 2 16 -1 19 -3 4 -6 -2 -5 -13z"/>
<path d="M6295 9037 c-30 -18 -48 -37 -42 -44 8 -7 97 36 97 48 0 13 -31 10
-55 -4z"/>
<path d="M7258 9023 c-40 -7 -114 -17 -164 -22 -50 -6 -103 -15 -118 -21 -15
-5 -39 -10 -53 -10 -20 0 -23 -3 -14 -14 9 -10 8 -21 -1 -42 -7 -16 -13 -47
-13 -69 0 -36 -3 -40 -25 -40 -20 0 -25 -6 -25 -25 0 -34 -33 -80 -51 -73 -10
4 -12 9 -4 18 8 9 6 14 -7 19 -10 4 -19 2 -21 -4 -2 -6 -15 -24 -28 -40 -14
-16 -20 -31 -15 -35 17 -10 9 -86 -11 -96 -10 -6 -19 -5 -23 1 -3 5 -13 10
-21 10 -19 0 -18 -39 1 -46 30 -12 15 -84 -17 -84 -11 0 -28 -4 -38 -10 -15
-8 -24 -4 -48 26 -16 19 -42 61 -57 92 -15 31 -32 65 -37 75 -15 30 8 57 47
57 19 0 35 4 35 8 0 16 -45 29 -72 21 -33 -9 -34 -5 -9 20 13 13 22 16 29 9
14 -14 29 -3 48 35 21 41 149 167 169 167 34 0 12 17 -37 28 -48 12 -53 11
-75 -9 -19 -19 -22 -29 -17 -61 5 -27 3 -38 -6 -38 -8 0 -11 9 -8 25 7 32 -19
34 -31 3 -5 -13 -27 -43 -50 -68 -46 -51 -101 -157 -101 -195 0 -18 7 -26 26
-31 18 -5 24 -12 21 -24 -2 -10 4 -22 15 -29 15 -9 17 -15 9 -25 -8 -10 -7
-17 5 -26 38 -32 54 -100 23 -100 -6 0 -24 -9 -39 -20 -16 -11 -35 -17 -43
-14 -8 3 -18 1 -21 -4 -8 -14 31 -24 89 -22 34 0 60 -6 83 -20 39 -24 41 -40
5 -40 -25 -1 -26 -2 -10 -14 9 -7 17 -18 17 -24 0 -6 -8 -13 -17 -15 -15 -4
-14 -5 3 -6 19 -1 44 -36 44 -61 0 -21 -40 -8 -84 25 -41 31 -66 43 -66 31 0
-3 20 -26 45 -52 43 -44 46 -51 43 -93 -3 -44 -5 -46 -35 -49 -26 -3 -31 0
-27 15 4 13 -7 26 -40 47 -26 16 -46 32 -46 36 0 15 -32 24 -184 49 -43 7 -54
5 -84 -15 -52 -35 -72 -67 -72 -113 0 -48 27 -98 72 -131 41 -31 138 -90 147
-90 4 0 20 -14 37 -31 16 -17 56 -50 89 -74 33 -24 79 -64 103 -90 35 -38 46
-44 58 -34 8 6 14 17 14 24 0 14 -208 227 -258 263 -20 15 -32 32 -32 47 0 13
-5 27 -10 30 -8 5 -7 11 1 21 21 25 109 18 180 -16 102 -47 108 -55 116 -135
3 -39 14 -86 23 -105 10 -19 21 -66 25 -105 7 -62 9 -66 15 -37 4 18 14 41 22
50 8 9 26 43 38 75 13 31 27 57 31 57 3 0 12 -21 20 -47 7 -27 26 -73 41 -103
31 -61 35 -101 13 -120 -22 -18 -19 -35 10 -54 28 -18 45 -21 45 -6 0 6 -7 10
-15 10 -9 0 -15 10 -15 26 0 19 4 25 18 22 21 -4 24 -50 6 -93 -14 -33 -59
-85 -74 -85 -6 0 -10 -8 -10 -18 0 -10 -7 -27 -15 -38 -20 -27 -19 -33 10 -44
16 -6 25 -18 26 -32 1 -22 1 -22 8 2 5 18 15 26 34 28 23 3 27 0 27 -22 0 -38
26 -33 45 9 9 19 23 39 31 46 8 6 14 19 14 28 0 9 13 28 29 43 25 25 29 26 47
13 10 -8 30 -14 44 -15 14 0 21 4 15 8 -13 9 -35 49 -35 62 0 16 39 -12 46
-33 8 -25 45 -18 60 11 9 19 13 20 17 8 4 -9 16 -16 28 -16 20 0 80 -36 87
-52 2 -4 7 -8 12 -8 4 0 -3 23 -17 51 -24 51 -24 53 -14 177 6 69 9 127 7 130
-3 2 -12 2 -20 -1 -13 -5 -46 -122 -46 -165 0 -11 -7 -23 -16 -26 -21 -8 -24
-8 -24 3 0 5 -16 36 -35 68 -19 32 -40 84 -46 116 -10 50 -9 66 11 134 l22 78
-24 71 c-29 85 -127 239 -142 224 -7 -7 -7 -16 1 -28 24 -36 83 -156 83 -170
0 -7 -9 -27 -21 -43 l-20 -29 -42 30 c-54 39 -89 83 -137 175 -27 50 -40 87
-40 112 1 49 23 140 44 180 9 18 16 52 16 77 0 32 8 56 26 83 32 48 64 65 136
74 45 5 63 13 80 33 13 15 44 50 70 78 26 29 54 70 63 93 45 111 85 151 188
183 28 9 51 21 49 27 -3 14 -97 12 -184 -2z m-174 -240 c-5 -5 -12 -12 -16
-18 -4 -6 -8 -2 -8 8 0 9 7 17 17 17 9 0 12 -3 7 -7z m-338 -318 c-8 -23 -25
-9 -19 16 4 13 9 17 16 10 5 -5 7 -17 3 -26z m-52 -34 c10 -15 -20 -45 -38
-38 -15 6 -15 8 1 26 20 22 29 25 37 12z m66 -32 c0 -11 -4 -18 -10 -14 -5 3
-7 12 -3 20 7 21 13 19 13 -6z m-526 -335 c19 -18 20 -30 5 -39 -11 -8 -38 22
-39 43 0 17 15 15 34 -4z m436 -60 c0 -8 -5 -12 -10 -9 -6 4 -8 11 -5 16 9 14
15 11 15 -7z m-446 -36 c5 -9 7 -20 3 -24 -12 -13 -62 10 -65 29 -3 15 2 18
24 15 15 -2 32 -11 38 -20z m598 -710 c-7 -7 -12 -8 -12 -2 0 14 12 26 19 19
2 -3 -1 -11 -7 -17z"/>
<path d="M9667 8994 c3 -22 16 -58 29 -82 18 -36 23 -40 28 -25 4 11 20 34 38
51 17 18 28 35 24 39 -3 4 -12 1 -18 -5 -7 -7 -21 -12 -32 -12 -19 0 -19 0 -1
14 22 16 14 45 -12 45 -10 -1 -28 2 -40 6 -21 7 -22 5 -16 -31z"/>
<path d="M6105 8983 c-16 -24 -16 -26 0 -20 9 4 21 7 26 7 5 0 9 9 9 20 0 28
-14 25 -35 -7z"/>
<path d="M9297 8983 c-13 -12 -7 -34 11 -40 9 -3 25 -13 34 -21 10 -8 24 -12
33 -8 13 5 9 12 -19 41 -35 35 -47 41 -59 28z"/>
<path d="M9548 8973 c7 -3 16 -2 19 1 4 3 -2 6 -13 5 -11 0 -14 -3 -6 -6z"/>
<path d="M6136 8935 c-3 -8 -1 -15 4 -15 6 0 10 7 10 15 0 8 -2 15 -4 15 -2 0
-6 -7 -10 -15z"/>
<path d="M9496 8922 c-7 -11 6 -27 27 -35 11 -4 17 -1 17 8 0 17 -36 39 -44
27z"/>
<path d="M6075 8889 c-12 -18 3 -22 20 -5 14 14 14 16 1 16 -8 0 -18 -5 -21
-11z"/>
<path d="M12360 8844 c0 -17 4 -23 12 -18 7 5 26 7 43 6 l30 -2 -24 20 c-34
29 -61 26 -61 -6z"/>
<path d="M7693 8852 c-15 -10 -34 -102 -22 -102 5 0 9 11 9 24 0 14 7 32 16
40 18 19 15 50 -3 38z"/>
<path d="M9677 8815 c-4 -8 -2 -17 3 -20 6 -4 10 3 10 14 0 25 -6 27 -13 6z"/>
<path d="M8801 8793 c0 -25 1 -26 9 -8 12 27 12 35 0 35 -5 0 -10 -12 -9 -27z"/>
<path d="M12460 8810 c0 -5 7 -10 16 -10 8 0 12 5 9 10 -3 6 -10 10 -16 10 -5
0 -9 -4 -9 -10z"/>
<path d="M12694 8789 c43 -22 74 -31 107 -31 30 1 52 -5 60 -14 9 -11 15 -12
25 -3 24 20 16 28 -33 34 -27 4 -78 15 -115 26 -95 28 -112 23 -44 -12z"/>
<path d="M8297 8774 c3 -9 9 -12 12 -7 3 4 10 11 15 16 5 4 0 7 -12 7 -15 0
-20 -4 -15 -16z"/>
<path d="M12350 8765 c0 -8 7 -15 15 -15 8 0 15 7 15 15 0 8 -7 15 -15 15 -8
0 -15 -7 -15 -15z"/>
<path d="M12460 8771 l-45 -6 49 -8 c69 -10 76 -9 70 8 -4 8 -11 14 -18 13 -6
0 -31 -4 -56 -7z"/>
<path d="M8266 8693 c-4 -13 -12 -23 -17 -23 -6 0 -21 -24 -34 -54 -13 -29
-31 -56 -39 -59 -26 -10 -18 -27 13 -27 17 0 33 -4 36 -10 3 -5 16 -10 27 -10
21 0 20 2 -7 30 -16 17 -23 30 -17 30 6 0 15 12 18 28 4 15 13 40 21 55 8 16
13 36 11 45 -3 14 -6 12 -12 -5z"/>
<path d="M12791 8694 c0 -11 3 -14 6 -6 3 7 2 16 -1 19 -3 4 -6 -2 -5 -13z"/>
<path d="M8636 8627 c-26 -19 -3 -27 49 -17 28 5 32 8 15 9 -15 0 -31 6 -36
11 -7 7 -16 6 -28 -3z"/>
<path d="M6550 8610 c0 -19 3 -21 12 -12 9 9 9 15 0 24 -9 9 -12 7 -12 -12z"/>
<path d="M8575 8600 c3 -5 13 -10 21 -10 8 0 14 5 14 10 0 6 -9 10 -21 10 -11
0 -17 -4 -14 -10z"/>
<path d="M8440 8560 c-8 -5 -32 -18 -53 -30 -20 -12 -35 -26 -31 -31 3 -5 17
-1 32 10 15 10 37 21 49 25 11 4 24 13 27 21 6 17 -1 18 -24 5z"/>
<path d="M6385 8450 c-4 -6 5 -10 20 -10 15 0 24 4 20 10 -3 6 -12 10 -20 10
-8 0 -17 -4 -20 -10z"/>
<path d="M6310 8429 c0 -5 5 -7 10 -4 6 3 10 8 10 11 0 2 -4 4 -10 4 -5 0 -10
-5 -10 -11z"/>
<path d="M7382 8330 c0 -19 2 -27 5 -17 2 9 2 25 0 35 -3 9 -5 1 -5 -18z"/>
<path d="M12175 8322 c6 -6 23 -12 40 -14 21 -2 31 -10 36 -28 4 -14 7 -19 8
-12 1 14 20 16 41 2 13 -8 12 -11 -5 -24 -19 -15 -19 -15 11 -16 26 0 33 5 38
26 4 15 6 28 4 29 -31 26 -197 62 -173 37z"/>
<path d="M7761 8284 c0 -11 3 -14 6 -6 3 7 2 16 -1 19 -3 4 -6 -2 -5 -13z"/>
<path d="M12190 8250 c0 -5 5 -10 10 -10 6 0 10 5 10 10 0 6 -4 10 -10 10 -5
0 -10 -4 -10 -10z"/>
<path d="M10182 8190 c0 -14 2 -19 5 -12 2 6 2 18 0 25 -3 6 -5 1 -5 -13z"/>
<path d="M6921 8184 c0 -11 3 -14 6 -6 3 7 2 16 -1 19 -3 4 -6 -2 -5 -13z"/>
<path d="M7465 8150 c-4 -6 -3 -16 3 -22 6 -6 12 -6 17 2 4 6 3 16 -3 22 -6 6
-12 6 -17 -2z"/>
<path d="M12450 8139 c-13 -9 -13 -11 -1 -16 8 -3 25 -17 38 -29 27 -27 74
-31 112 -10 l24 14 -21 11 c-13 7 -37 9 -56 6 -28 -6 -34 -3 -39 14 -6 23 -33
27 -57 10z"/>
<path d="M6475 8118 c-4 -9 -4 -22 0 -28 8 -13 55 -13 55 0 0 6 -7 10 -15 10
-7 0 -18 8 -24 18 -9 16 -10 16 -16 0z"/>
<path d="M7440 8075 c1 -26 2 -28 11 -12 8 14 8 22 0 30 -8 8 -11 3 -11 -18z"/>
<path d="M12338 8093 c7 -3 16 -2 19 1 4 3 -2 6 -13 5 -11 0 -14 -3 -6 -6z"/>
<path d="M12660 8081 c0 -19 22 -23 38 -7 15 15 14 16 -11 16 -15 0 -27 -4
-27 -9z"/>
<path d="M12428 8063 c7 -3 16 -2 19 1 4 3 -2 6 -13 5 -11 0 -14 -3 -6 -6z"/>
<path d="M12615 8048 c-11 -7 -49 -11 -85 -10 -50 1 -61 -1 -47 -9 18 -10 142
-19 165 -11 6 2 12 13 12 23 0 21 -16 24 -45 7z"/>
<path d="M13958 8054 c-41 -12 3 -58 52 -55 89 6 99 11 81 40 -9 15 -100 24
-133 15z"/>
<path d="M10271 8014 c0 -11 3 -14 6 -6 3 7 2 16 -1 19 -3 4 -6 -2 -5 -13z"/>
<path d="M12805 8010 c-4 -6 3 -10 14 -10 25 0 27 6 6 13 -8 4 -17 2 -20 -3z"/>
<path d="M7571 7984 c0 -11 3 -14 6 -6 3 7 2 16 -1 19 -3 4 -6 -2 -5 -13z"/>
<path d="M7181 7974 c0 -11 3 -14 6 -6 3 7 2 16 -1 19 -3 4 -6 -2 -5 -13z"/>
<path d="M12488 7924 c-11 -10 3 -34 19 -34 8 0 13 7 11 17 -3 18 -20 27 -30
17z"/>
<path d="M12350 7866 c0 -13 -3 -32 -6 -41 -6 -15 -1 -16 42 -10 73 11 77 23
22 58 -38 24 -58 22 -58 -7z"/>
<path d="M8970 7815 c-12 -15 -6 -35 12 -35 6 0 16 -7 22 -16 9 -12 17 -13 38
-5 20 8 29 7 39 -5 18 -22 22 -9 8 30 -13 36 -40 51 -58 33 -8 -8 -14 -8 -23
1 -16 16 -23 15 -38 -3z"/>
<path d="M12480 7794 c0 -9 5 -14 12 -12 18 6 21 28 4 28 -9 0 -16 -7 -16 -16z"/>
<path d="M9120 7711 c0 -5 7 -11 15 -15 8 -3 15 -1 15 3 0 5 -7 11 -15 15 -8
3 -15 1 -15 -3z"/>
<path d="M10583 7680 c14 -11 28 -20 32 -20 3 0 13 -7 21 -15 18 -17 34 -20
34 -5 0 6 -7 10 -15 10 -8 0 -15 4 -15 10 0 5 -11 12 -25 16 -14 3 -25 10 -25
15 0 5 -7 9 -16 9 -12 0 -10 -5 9 -20z"/>
<path d="M14094 7684 c3 -9 6 -22 6 -30 0 -8 10 -14 24 -14 26 0 83 -50 106
-94 17 -34 39 -44 51 -25 6 10 9 5 9 -16 0 -39 15 -63 24 -40 20 53 -9 129
-60 155 -16 8 -54 29 -85 47 -63 36 -84 41 -75 17z"/>
<path d="M7590 7650 c0 -16 2 -30 4 -30 2 0 6 14 8 30 3 17 1 30 -4 30 -4 0
-8 -13 -8 -30z"/>
<path d="M10698 7613 c7 -3 16 -2 19 1 4 3 -2 6 -13 5 -11 0 -14 -3 -6 -6z"/>
<path d="M6106 7282 c-3 -6 8 -12 24 -14 19 -3 29 -1 27 6 -5 14 -43 20 -51 8z"/>
<path d="M6550 7150 c0 -5 5 -10 11 -10 5 0 7 5 4 10 -3 6 -8 10 -11 10 -2 0
-4 -4 -4 -10z"/>
<path d="M6572 7109 c2 -7 10 -15 17 -17 8 -3 12 1 9 9 -2 7 -10 15 -17 17 -8
3 -12 -1 -9 -9z"/>
<path d="M8745 7090 c4 -6 11 -8 16 -5 14 9 11 15 -7 15 -8 0 -12 -5 -9 -10z"/>
<path d="M6608 7073 c7 -3 16 -2 19 1 4 3 -2 6 -13 5 -11 0 -14 -3 -6 -6z"/>
<path d="M6644 7045 c22 -17 36 -19 36 -6 0 10 -24 21 -43 21 -7 0 -3 -7 7
-15z"/>
<path d="M8775 7020 c-4 -6 -16 -10 -28 -10 -12 0 -31 -7 -41 -15 -22 -16 -23
-16 43 -18 24 -1 61 21 61 36 0 10 -30 16 -35 7z"/>
<path d="M8638 6983 c7 -3 16 -2 19 1 4 3 -2 6 -13 5 -11 0 -14 -3 -6 -6z"/>
<path d="M7505 6970 c3 -5 8 -10 11 -10 2 0 4 5 4 10 0 6 -5 10 -11 10 -5 0
-7 -4 -4 -10z"/>
<path d="M9320 6970 c0 -5 5 -10 10 -10 6 0 10 5 10 10 0 6 -4 10 -10 10 -5 0
-10 -4 -10 -10z"/>
<path d="M10106 6955 c-3 -10 1 -15 13 -15 10 0 24 7 31 15 11 13 9 15 -13 15
-14 0 -27 -7 -31 -15z"/>
<path d="M6871 6939 c12 -17 27 -21 94 -24 44 -2 90 -5 103 -7 39 -5 19 -23
-27 -23 -26 0 -46 -5 -48 -12 -3 -8 4 -13 16 -13 28 0 28 -35 1 -50 -26 -14
-27 -40 -1 -33 11 3 22 11 25 19 3 8 22 22 41 30 19 8 35 19 35 24 0 6 7 10
15 10 8 0 15 5 15 11 0 5 14 15 30 20 31 11 40 34 18 42 -7 2 -25 0 -40 -5
-32 -11 -227 7 -242 22 -6 6 -19 10 -29 10 -17 0 -18 -2 -6 -21z"/>
<path d="M7389 6933 c-10 -11 -26 -14 -62 -10 l-48 4 7 -66 c3 -36 12 -77 19
-91 8 -14 19 -39 26 -56 l13 -32 26 42 c18 28 41 48 71 61 24 10 46 20 48 22
2 1 -11 24 -28 51 -17 27 -31 56 -31 64 0 23 -26 30 -41 11z m-24 -61 c-7 -8
-35 7 -35 18 0 6 7 6 20 -2 10 -7 17 -14 15 -16z"/>
<path d="M10154 6905 c-18 -13 -18 -14 9 -20 36 -9 58 9 29 24 -14 7 -24 7
-38 -4z"/>
<path d="M8597 6902 c-22 -3 -26 -6 -17 -17 6 -8 7 -16 2 -19 -6 -3 -15 1 -22
9 -13 15 -50 21 -50 8 1 -5 9 -18 19 -30 20 -24 34 -22 119 13 18 8 41 14 51
14 10 0 21 6 24 14 4 10 -6 13 -46 12 -29 0 -65 -2 -80 -4z"/>
<path d="M9340 6894 c0 -9 5 -14 12 -12 18 6 21 28 4 28 -9 0 -16 -7 -16 -16z"/>
<path d="M8855 6870 c-4 -6 -28 -21 -53 -33 l-47 -22 42 -3 c23 -2 47 -9 53
-17 10 -12 17 -10 46 13 19 15 34 29 34 32 0 6 -54 40 -63 40 -3 0 -9 -5 -12
-10z"/>
<path d="M9390 6850 c0 -5 5 -10 10 -10 6 0 10 5 10 10 0 6 -4 10 -10 10 -5 0
-10 -4 -10 -10z"/>
<path d="M6910 6825 c0 -8 5 -15 10 -15 6 0 10 7 10 15 0 8 -4 15 -10 15 -5 0
-10 -7 -10 -15z"/>
<path d="M7168 6813 c-26 -31 -30 -43 -18 -58 12 -14 10 -54 -4 -86 -5 -11 3
-20 29 -32 51 -24 69 -23 60 6 -4 12 -12 58 -19 101 -12 83 -22 98 -48 69z"/>
<path d="M9420 6810 c0 -23 32 -50 58 -50 35 0 25 26 -18 48 -37 18 -40 18
-40 2z"/>
<path d="M12013 6801 c-18 -16 -33 -31 -33 -34 0 -7 44 5 50 14 3 4 14 9 25
11 15 2 19 -2 17 -16 -3 -16 1 -18 30 -13 64 12 144 16 121 7 -33 -13 -28 -25
10 -25 50 1 127 16 127 25 0 5 8 11 18 13 9 3 -1 5 -23 6 -22 0 -72 8 -110 17
-39 8 -99 17 -135 19 -60 4 -68 2 -97 -24z"/>
<path d="M8000 6801 c0 -6 5 -13 10 -16 6 -3 10 1 10 9 0 9 -4 16 -10 16 -5 0
-10 -4 -10 -9z"/>
<path d="M10478 6793 c7 -3 16 -2 19 1 4 3 -2 6 -13 5 -11 0 -14 -3 -6 -6z"/>
<path d="M11895 6790 c-3 -5 -1 -10 4 -10 6 0 11 5 11 10 0 6 -2 10 -4 10 -3
0 -8 -4 -11 -10z"/>
<path d="M8655 6780 c-18 -7 -18 -9 10 -20 17 -6 44 -14 60 -17 l30 -6 -31 26
c-34 29 -38 30 -69 17z"/>
<path d="M7488 6738 c-16 -18 -28 -36 -28 -40 0 -4 -10 -8 -21 -8 -16 0 -20
-5 -16 -20 3 -12 -1 -24 -11 -29 -22 -12 -11 -22 24 -22 45 0 73 6 152 30 75
23 92 44 46 55 -14 4 -44 20 -66 36 -23 17 -44 30 -47 30 -3 0 -18 -15 -33
-32z"/>
<path d="M10528 6763 c7 -3 16 -2 19 1 4 3 -2 6 -13 5 -11 0 -14 -3 -6 -6z"/>
<path d="M11833 6756 c-13 -6 -23 -14 -23 -18 0 -9 58 11 66 23 7 12 -15 9
-43 -5z"/>
<path d="M9506 6751 c-8 -12 92 -91 115 -91 11 0 19 7 19 16 0 9 -7 14 -17 12
-9 -2 -31 10 -48 25 -39 37 -62 49 -69 38z"/>
<path d="M7896 6731 c-10 -11 -30 -23 -46 -26 -15 -3 -44 -21 -65 -40 -21 -19
-45 -35 -55 -35 -9 0 -28 -8 -41 -18 -13 -11 -33 -21 -44 -25 -11 -3 -45 -15
-75 -28 -30 -12 -74 -24 -97 -26 -24 -3 -43 -10 -43 -17 0 -6 21 -34 46 -61
25 -28 61 -67 79 -88 23 -26 34 -33 38 -23 3 7 27 17 54 21 67 10 109 29 115
53 7 24 1 32 -23 32 -9 0 -27 8 -40 19 -21 16 -22 21 -9 36 10 12 23 15 47 12
31 -5 34 -3 56 41 13 26 30 58 38 72 17 30 87 110 95 109 3 0 8 2 12 5 3 3 -1
6 -10 6 -8 0 -23 -9 -32 -19z m-375 -248 c13 -35 1 -49 -23 -24 -12 14 -17 29
-13 41 8 24 23 17 36 -17z m59 -78 c0 -8 5 -15 10 -15 6 0 10 5 10 10 0 6 11
10 25 10 14 0 25 -4 25 -10 0 -5 -11 -10 -25 -10 -14 0 -25 -5 -25 -10 0 -6
-8 -5 -20 2 -21 13 -27 38 -10 38 6 0 10 -7 10 -15z"/>
<path d="M12460 6740 c0 -5 -11 -10 -24 -10 -57 0 -39 -31 36 -64 l56 -25 26
29 26 30 -27 6 c-14 4 -34 15 -44 25 -20 20 -49 25 -49 9z"/>
<path d="M7108 6732 c-21 -4 -24 -32 -4 -32 8 0 17 7 20 16 8 20 6 21 -16 16z"/>
<path d="M8318 6733 c7 -3 16 -2 19 1 4 3 -2 6 -13 5 -11 0 -14 -3 -6 -6z"/>
<path d="M8406 6732 c-6 -10 71 -74 91 -76 29 -2 24 22 -9 53 -31 29 -71 40
-82 23z"/>
<path d="M12322 6719 c2 -6 7 -10 11 -10 4 1 14 1 23 1 8 0 12 5 9 10 -8 13
-48 13 -43 -1z"/>
<path d="M9297 6692 c17 -18 38 -32 46 -32 7 0 20 -11 27 -25 7 -14 18 -25 23
-25 5 0 16 -9 25 -19 18 -21 86 -61 102 -61 6 0 10 6 10 14 0 8 7 17 16 20 28
11 4 27 -30 20 -25 -4 -35 -2 -39 10 -4 9 -14 16 -24 16 -11 0 -24 14 -33 36
-12 31 -23 39 -60 49 -25 7 -56 17 -70 21 -24 7 -24 6 7 -24z"/>
<path d="M6820 6700 c0 -5 4 -10 9 -10 6 0 13 5 16 10 3 6 -1 10 -9 10 -9 0
-16 -4 -16 -10z"/>
<path d="M9100 6695 c0 -8 9 -19 20 -25 11 -6 20 -15 20 -20 0 -25 100 -120
127 -120 12 0 25 -4 28 -10 3 -5 22 -10 41 -10 19 0 34 -5 34 -10 0 -6 11 -16
25 -22 14 -6 25 -17 25 -24 0 -23 19 -25 57 -4 27 14 32 20 18 20 -11 0 -38
12 -60 25 -22 14 -48 25 -57 25 -10 0 -18 7 -18 15 0 8 -7 15 -15 15 -8 0 -32
15 -53 34 -78 72 -95 86 -104 86 -5 0 -18 9 -30 20 -25 23 -58 26 -58 5z"/>
<path d="M10938 6703 c6 -2 18 -2 25 0 6 3 1 5 -13 5 -14 0 -19 -2 -12 -5z"/>
<path d="M8023 6668 c-104 -76 -183 -146 -183 -163 0 -6 15 -19 34 -27 31 -15
35 -15 62 3 16 10 36 23 44 28 8 5 37 16 63 23 40 11 49 17 54 40 4 21 11 28
29 28 30 0 31 -18 2 -30 -22 -8 -22 -9 -2 -9 12 -1 35 4 53 10 l32 11 -37 20
c-21 11 -44 26 -51 34 -8 8 -20 14 -27 14 -8 0 -20 9 -27 21 l-14 20 -32 -23z
m-36 -78 c8 -12 9 -21 3 -25 -6 -3 -10 -15 -10 -26 0 -32 -17 -21 -23 14 -8
54 8 74 30 37z"/>
<path d="M8338 6683 c6 -2 18 -2 25 0 6 3 1 5 -13 5 -14 0 -19 -2 -12 -5z"/>
<path d="M10543 6644 c-24 -22 -30 -44 -13 -44 6 0 10 4 10 9 0 5 7 17 16 25
24 25 12 34 -13 10z"/>
<path d="M8880 6635 c0 -13 -7 -28 -16 -33 -14 -8 -20 -25 -41 -108 -4 -16 1
-23 19 -27 36 -10 112 -8 146 4 25 8 29 14 22 27 -5 9 -11 29 -15 45 -3 15 -9
27 -14 27 -17 0 -83 69 -76 79 3 6 -1 11 -9 11 -10 0 -16 -9 -16 -25z"/>
<path d="M11768 6643 c-33 -16 -36 -29 -9 -38 39 -12 174 -157 241 -257 14
-21 30 -40 35 -42 14 -5 56 42 44 50 -5 3 -9 12 -9 19 0 17 -60 105 -72 105
-9 0 -23 14 -76 74 -31 34 -35 36 -50 22 -16 -13 -19 -12 -40 9 -14 14 -22 33
-20 46 4 27 -9 31 -44 12z m186 -149 c17 -7 22 -44 6 -44 -9 0 -30 31 -30 44
0 8 5 7 24 0z"/>
<path d="M7360 6642 c0 -5 9 -17 20 -27 22 -20 26 -14 10 16 -11 19 -30 26
-30 11z"/>
<path d="M8413 6620 c2 -28 7 -36 25 -38 25 -4 30 15 6 25 -9 3 -20 15 -25 27
-7 17 -8 15 -6 -14z"/>
<path d="M12607 6636 c-3 -8 2 -16 14 -19 21 -6 34 7 24 23 -9 15 -32 12 -38
-4z"/>
<path d="M8530 6620 c0 -5 5 -10 10 -10 6 0 15 -12 20 -26 7 -16 16 -24 28
-22 21 4 29 48 10 59 -18 12 -68 11 -68 -1z"/>
<path d="M8721 6621 c-11 -7 -24 -71 -15 -71 1 0 11 18 23 40 21 40 19 48 -8
31z"/>
<path d="M7090 6591 c0 -16 125 -111 146 -111 25 0 39 27 24 45 -6 7 -26 16
-44 19 -19 4 -55 18 -80 31 -25 13 -46 21 -46 16z"/>
<path d="M7020 6552 c0 -21 19 -42 38 -42 10 0 9 7 -5 30 -20 34 -33 39 -33
12z"/>
<path d="M12570 6556 c0 -2 7 -6 15 -10 8 -3 15 -1 15 4 0 6 -7 10 -15 10 -8
0 -15 -2 -15 -4z"/>
<path d="M12460 6530 c14 -11 30 -24 37 -30 15 -13 63 -13 63 -1 0 16 -66 51
-96 51 l-29 -1 25 -19z"/>
<path d="M9540 6526 c0 -21 11 -25 38 -15 32 12 27 29 -8 29 -19 0 -30 -5 -30
-14z"/>
<path d="M8650 6520 c0 -5 7 -10 15 -10 8 0 15 5 15 10 0 6 -7 10 -15 10 -8 0
-15 -4 -15 -10z"/>
<path d="M11630 6517 c0 -8 7 -17 15 -21 8 -3 15 -3 15 0 0 3 -7 12 -15 20
-13 13 -15 13 -15 1z"/>
<path d="M7274 6465 c-19 -14 -18 -14 4 -15 13 0 22 6 22 15 0 19 -1 19 -26 0z"/>
<path d="M9210 6450 c-9 -6 -3 -18 24 -44 37 -37 49 -73 21 -62 -21 8 -19 -10
5 -34 24 -24 26 -53 5 -70 -19 -15 -8 -30 41 -59 40 -24 39 -27 53 79 6 41 12
84 13 94 2 14 -5 22 -29 28 -18 5 -33 13 -33 19 0 27 -76 64 -100 49z"/>
<path d="M11670 6455 c0 -13 38 -46 43 -38 3 5 -3 17 -14 26 -20 17 -29 21
-29 12z"/>
<path d="M7305 6430 c3 -5 11 -10 16 -10 6 0 7 5 4 10 -3 6 -11 10 -16 10 -6
0 -7 -4 -4 -10z"/>
<path d="M7832 6419 c1 -13 8 -23 13 -21 15 3 12 35 -3 40 -9 3 -13 -3 -10
-19z"/>
<path d="M9076 6431 c-8 -12 26 -90 43 -96 7 -3 20 0 28 6 11 10 10 15 -7 31
-26 24 -26 48 1 48 11 0 17 5 14 10 -4 7 -12 7 -25 0 -13 -7 -21 -7 -25 0 -8
12 -22 13 -29 1z"/>
<path d="M11640 6430 c0 -13 40 -53 46 -47 3 3 -2 12 -11 20 -8 9 -15 20 -15
26 0 6 -4 11 -10 11 -5 0 -10 -4 -10 -10z"/>
<path d="M8953 6408 c-12 -6 -25 -23 -28 -39 -6 -27 -55 -71 -55 -48 0 6 9 13
20 16 11 3 20 14 20 24 0 15 -7 19 -39 19 -46 0 -60 -14 -37 -39 9 -10 16 -28
16 -41 0 -22 2 -23 68 -16 37 4 81 12 98 18 l31 11 -15 53 c-16 58 -31 65 -79
42z"/>
<path d="M8120 6394 c-36 -7 -76 -16 -89 -20 -23 -7 -23 -7 7 -20 17 -7 38
-26 46 -43 l16 -30 83 5 c138 9 169 36 108 93 -33 31 -71 34 -171 15z"/>
<path d="M8570 6400 c0 -5 9 -19 20 -30 11 -11 20 -31 20 -44 0 -25 39 -46 86
-46 24 0 33 23 14 35 -5 3 -10 22 -10 41 0 33 -1 34 -39 34 -22 0 -43 5 -46
10 -3 6 -15 10 -26 10 -10 0 -19 -4 -19 -10z"/>
<path d="M12256 6342 c5 -31 7 -71 6 -88 -1 -21 4 -34 13 -38 22 -8 46 4 44
23 -3 22 11 53 33 74 21 21 23 37 6 37 -7 0 -35 11 -61 25 l-48 24 7 -57z"/>
<path d="M9177 6384 c-14 -15 -6 -34 14 -34 14 0 19 5 17 17 -3 18 -20 27 -31
17z"/>
<path d="M9461 6374 c0 -11 3 -14 6 -6 3 7 2 16 -1 19 -3 4 -6 -2 -5 -13z"/>
<path d="M10328 6383 c12 -2 30 -2 40 0 9 3 -1 5 -23 4 -22 0 -30 -2 -17 -4z"/>
<path d="M11708 6379 c-26 -15 -22 -29 7 -29 18 0 28 -7 35 -25 11 -30 30 -33
30 -5 0 11 -3 20 -8 20 -4 0 -12 10 -17 22 -12 26 -24 31 -47 17z"/>
<path d="M10210 6376 c0 -2 14 -6 30 -8 17 -3 30 -1 30 4 0 4 -13 8 -30 8 -16
0 -30 -2 -30 -4z"/>
<path d="M9423 6345 c-8 -22 6 -33 17 -15 13 20 12 30 0 30 -6 0 -13 -7 -17
-15z"/>
<path d="M9510 6329 c0 -5 5 -7 10 -4 6 3 10 8 10 11 0 2 -4 4 -10 4 -5 0 -10
-5 -10 -11z"/>
<path d="M9395 6299 c-4 -12 -2 -26 4 -32 8 -8 11 -2 11 21 0 37 -6 41 -15 11z"/>
<path d="M7670 6298 l-36 -10 40 -44 41 -44 17 52 c10 29 18 54 18 56 0 5 -47
-1 -80 -10z"/>
<path d="M9480 6299 c0 -5 5 -7 10 -4 6 3 10 8 10 11 0 2 -4 4 -10 4 -5 0 -10
-5 -10 -11z"/>
<path d="M9948 6303 c6 -2 18 -2 25 0 6 3 1 5 -13 5 -14 0 -19 -2 -12 -5z"/>
<path d="M11790 6280 c0 -5 5 -10 11 -10 5 0 7 5 4 10 -3 6 -8 10 -11 10 -2 0
-4 -4 -4 -10z"/>
<path d="M12622 6274 c4 -20 34 -41 44 -31 8 8 -24 47 -38 47 -5 0 -8 -7 -6
-16z"/>
<path d="M9451 6254 c0 -11 3 -14 6 -6 3 7 2 16 -1 19 -3 4 -6 -2 -5 -13z"/>
<path d="M9446 6215 c-3 -9 -6 -22 -5 -28 0 -7 5 -1 10 12 5 13 8 26 5 28 -2
2 -6 -3 -10 -12z"/>
<path d="M7986 6212 c-6 -10 42 -112 59 -125 6 -4 19 -5 29 -3 10 3 42 1 70
-5 50 -9 52 -9 79 21 l27 31 -22 29 c-19 26 -28 29 -67 29 -41 -1 -83 6 -147
26 -12 4 -24 3 -28 -3z"/>
<path d="M12240 6175 c-10 -12 -9 -16 4 -21 9 -3 23 -3 32 0 13 5 14 9 4 21
-7 8 -16 15 -20 15 -4 0 -13 -7 -20 -15z"/>
<path d="M10088 6173 c6 -2 18 -2 25 0 6 3 1 5 -13 5 -14 0 -19 -2 -12 -5z"/>
<path d="M8768 6157 c-32 -6 -58 -13 -58 -17 0 -4 14 -13 31 -20 17 -7 36 -18
43 -24 14 -13 98 -56 109 -56 13 0 8 27 -8 40 -8 7 -15 21 -15 31 0 11 -4 19
-10 19 -5 0 -10 9 -10 20 0 22 1 22 -82 7z m82 -48 c0 -5 -7 -9 -15 -9 -9 0
-12 6 -9 15 6 15 24 11 24 -6z"/>
<path d="M9797 6153 c-12 -11 -8 -23 7 -23 8 0 16 7 20 15 5 15 -14 21 -27 8z"/>
<path d="M9580 6133 c0 -11 58 -43 76 -43 8 0 14 5 14 10 0 6 -6 10 -14 10 -7
0 -19 7 -26 15 -13 15 -50 21 -50 8z"/>
<path d="M12315 6122 c-35 -7 -35 -17 1 -19 18 -2 34 1 34 6 0 14 -12 18 -35
13z"/>
<path d="M12870 6104 c-14 -7 -43 -29 -65 -48 -30 -27 -36 -35 -22 -36 17 0
66 29 93 55 9 9 27 47 21 44 -1 -1 -13 -7 -27 -15z"/>
<path d="M12190 6085 c0 -8 4 -15 9 -15 5 0 14 7 21 15 10 13 9 15 -9 15 -12
0 -21 -6 -21 -15z"/>
<path d="M12010 5896 c0 -10 13 -16 42 -18 47 -3 59 -20 26 -36 l-23 -11 23 0
c12 -1 22 4 22 10 0 11 115 7 180 -7 31 -6 33 -5 22 9 -12 14 -7 15 40 12 29
-2 66 -8 81 -14 16 -6 33 -11 38 -11 12 0 11 -21 -1 -40 -7 -11 -4 -16 13 -20
13 -4 23 -15 25 -28 5 -31 32 -28 32 4 0 35 -17 64 -38 64 -16 1 -16 2 1 14
20 15 16 20 -25 30 -26 6 -40 26 -18 26 6 0 10 4 10 9 0 5 -84 6 -194 3 -139
-3 -195 -2 -200 7 -10 16 -56 14 -56 -3z"/>
<path d="M12628 5873 c6 -2 18 -2 25 0 6 3 1 5 -13 5 -14 0 -19 -2 -12 -5z"/>
<path d="M12670 5854 c0 -7 27 -34 34 -34 11 0 -6 29 -20 34 -8 3 -14 3 -14 0z"/>
<path d="M11950 5810 c0 -13 11 -13 30 0 12 8 11 10 -7 10 -13 0 -23 -4 -23
-10z"/>
<path d="M11990 5790 c0 -13 20 -13 40 0 12 8 9 10 -12 10 -16 0 -28 -4 -28
-10z"/>
<path d="M12710 5780 c0 -19 11 -26 23 -14 8 8 -3 34 -14 34 -5 0 -9 -9 -9
-20z"/>
<path d="M11915 5780 c-3 -5 1 -10 9 -10 9 0 16 5 16 10 0 6 -4 10 -9 10 -6 0
-13 -4 -16 -10z"/>
<path d="M11953 5763 c-7 -2 -13 -11 -13 -19 0 -12 4 -12 20 -2 31 20 26 35
-7 21z"/>
<path d="M12418 5703 c6 -2 18 -2 25 0 6 3 1 5 -13 5 -14 0 -19 -2 -12 -5z"/>
</g>
</svg>
